<svg id="Группа_1" xmlns="http://www.w3.org/2000/svg" viewBox="-235 406.9 124 29"><style>.st0{fill:#fff}.st1{fill:url(#corner_1_)}</style><path id="logo" class="st0" d="M-203.7 429.7h5.1l.1-15.7h-5.2v15.7zm2.4-22.8c-1.5 0-2.7 1.2-2.7 2.6s1.2 2.7 2.6 2.7 2.7-1.2 2.7-2.6c.1-1.5-1.1-2.7-2.6-2.7.1 0 .1 0 0 0m59.8 22.9h5.1v-15.6h-5.1v15.6zm19.6-15.7l-2.8 3.7-2.8-3.7h-6.1l5.8 7.8-5.7 7.8h5.9l2.8-3.9 2.9-4 5.8-7.8c.2.1-5.8.1-5.8.1zm1.6 9.3l-2.7 3.6 6.1 8.9h6l-9.4-12.5zm-18.6-16.5c-1.5 0-2.7 1.2-2.7 2.6 0 1.5 1.2 2.7 2.6 2.7s2.7-1.2 2.7-2.6c.1-1.5-1.1-2.7-2.6-2.7m-96.1 10.8h4.3v12h5.4v-12h4.3v-3.8h-14v3.8zm76.6.2h4.3v11.8h5.4v-11.8h4.3v-3.8h-14v3.8zm-50.5-4.4c-2.9 0-4.4 2.8-4.4 2.8l-1.9-2.4h-2.9v15.8h5.4v-6.9c-.1-1.3.4-2.6 1.3-3.6 1.7-1.7 4.4-.9 4.4-.9l.4-4.5c-.8-.3-1.6-.3-2.3-.3zm18.7 3l-1.9-2.4h-2.9v15.6h5.4V422c-.1-1.7 1-3.2 2.6-3.7 1.3-.3 3.2.2 3.1 3.4v8h5.2v-10c.2-3.2-2.2-5.8-5.4-6h-.3c-2.3 0-4.5 1-5.8 2.8zm22.6-2.8c-6.2 0-8.5 4.4-8.5 8.3 0 4.5 3.3 8.2 8.8 8.2 2.3 0 4.6-.6 6.6-1.7l-.5-3c-1.9.7-3.9 1-5.9 1-3.4-.1-3.5-2.9-3.5-2.9h10.8c.1-6.2-2.6-9.9-7.8-9.9zm-3.1 6.8c-.1-1.7 1.1-3.1 2.8-3.3h.4c1.6.1 2.9 1.5 2.8 3.1v.1c0 .1 0-.1 0 0h-6z"/><linearGradient id="corner_1_" gradientUnits="userSpaceOnUse" x1="-110.579" y1="435.277" x2="-122.798" y2="426.721"><stop offset="0" stop-color="#00abff"/><stop offset="1" stop-color="#80d5ff"/></linearGradient><path id="corner" class="st1" d="M-120.3 423.4l-2.7 3.6 6.1 8.9h6l-9.4-12.5z"/></svg>