<?xml version="1.0" standalone="no"?>
<!DOCTYPE svg PUBLIC "-//W3C//DTD SVG 1.1//EN" "http://www.w3.org/Graphics/SVG/1.1/DTD/svg11.dtd" >
<svg>
<metadata>
Created by FontForge 20120731 at Thu Aug  4 11:59:15 2016
 By www
Copyright (c) 2008 by Ramiz Guseynov. All rights reserved.
</metadata>
<defs>
<font id="DecimaNovaW01-Bold" horiz-adv-x="631" >
  <font-face 
    font-family="DecimaNovaW01-Bold"
    font-weight="700"
    font-stretch="normal"
    units-per-em="1000"
    panose-1="2 0 5 6 0 0 0 2 0 4"
    ascent="750"
    descent="-250"
    x-height="500"
    cap-height="700"
    bbox="-84 -211 1231 918"
    underline-thickness="50"
    underline-position="-100"
    unicode-range="U+0002-2122"
  />
<missing-glyph horiz-adv-x="220" 
 />
    <glyph glyph-name=".notdef" horiz-adv-x="220" 
 />
    <glyph glyph-name=".null" horiz-adv-x="0" 
 />
    <glyph glyph-name="uni000D" unicode="&#xd;" horiz-adv-x="220" 
 />
    <glyph glyph-name="uni0002" horiz-adv-x="0" 
 />
    <glyph glyph-name="uni0009" unicode="&#x9;" horiz-adv-x="220" 
 />
    <glyph glyph-name="uni000A" unicode="&#xa;" horiz-adv-x="0" 
 />
    <glyph glyph-name="space" unicode=" " horiz-adv-x="220" 
 />
    <glyph glyph-name="exclam" unicode="!" horiz-adv-x="302" 
d="M200 188h-98l-12 512h122zM95 113h113v-113h-113v113z" />
    <glyph glyph-name="quotedbl" unicode="&#x22;" horiz-adv-x="395" 
d="M60 700h103l-15 -235h-88v235zM233 700h102l-15 -235h-87v235z" />
    <glyph glyph-name="numbersign" unicode="#" horiz-adv-x="700" 
d="M96 515h112l27 185h93l-27 -185h148l26 185h93l-26 -185h93v-106h-109l-16 -117h95v-107h-111l-27 -185h-93l27 185h-147l-27 -185h-93l27 185h-96v107h111l17 117h-97v106zM269 292h147l17 117h-147z" />
    <glyph glyph-name="dollar" unicode="$" horiz-adv-x="590" 
d="M231 5q-32 2 -59.5 6t-49.5 9q-26 5 -47 11l4 106q32 -7 65 -12q29 -5 62.5 -8.5t65.5 -3.5q40 0 66.5 4.5t42.5 14.5t22.5 26t6.5 38q0 29 -15 47.5t-39 30.5t-55 20t-63.5 17.5t-63.5 22.5t-55 35t-39 54.5t-15 80.5q0 82 47 128t119 60v56h113v-54q32 -2 56.5 -6
t41.5 -9q20 -5 36 -11l-5 -104q-30 6 -61 11q-27 4 -59 7.5t-61 3.5q-49 0 -80.5 -17.5t-31.5 -61.5q0 -37 25.5 -56t64 -31.5t83 -23t83 -32t64 -59t25.5 -102.5q0 -81 -42.5 -132t-138.5 -64v-55h-113v53z" />
    <glyph glyph-name="percent" unicode="%" horiz-adv-x="935" 
d="M395 479q0 -34 -12.5 -61t-34 -46.5t-50 -30t-61.5 -10.5t-61.5 10.5t-49.5 30t-33.5 47t-12.5 60.5v83q0 33 12.5 60.5t33.5 47t49.5 30t61.5 10.5t61.5 -10.5t50 -30t34 -47t12.5 -60.5v-83zM290 575q0 23 -15.5 35t-38.5 12t-37.5 -12t-14.5 -35v-108q0 -24 15 -36
t38 -12t38 12t15 35v109zM579 700h94l-317 -700h-97zM855 137q0 -34 -12.5 -61t-34 -46.5t-50 -30t-61.5 -10.5t-61.5 10.5t-49.5 30t-33.5 47t-12.5 60.5v83q0 33 12.5 60.5t33.5 47t49.5 30t61.5 10.5t61.5 -10.5t50 -30t34 -47t12.5 -60.5v-83zM750 233q0 23 -15.5 35
t-38.5 12t-37.5 -12t-14.5 -35v-108q0 -24 15 -36t38 -12t38 12t15 35v109z" />
    <glyph glyph-name="ampersand" unicode="&#x26;" horiz-adv-x="616" 
d="M541 347v-113q0 -45 -11.5 -82t-26.5 -63l48 -89h-123l-9 17q-29 -14 -60.5 -20.5t-58.5 -6.5q-42 0 -83.5 10.5t-75.5 38t-55 74.5t-21 121q0 84 34 133.5t90 71.5l-85 152v109h401v-104h-279l158 -288l50 -105v144h107zM303 100q20 0 35.5 3t28.5 8l-127 232
q-25 -7 -40 -30t-15 -77q0 -30 4.5 -55t17.5 -43t36 -28t60 -10z" />
    <glyph glyph-name="quotesingle" unicode="'" horiz-adv-x="223" 
d="M60 700h103l-15 -235h-88v235z" />
    <glyph glyph-name="parenleft" unicode="(" horiz-adv-x="349" 
d="M304 -190q-45 0 -85 15t-70 40.5t-47 60.5t-17 74v521q0 39 17 73.5t47 60t70 40.5t85 15v-112q-46 0 -75.5 -22t-29.5 -55v-522q0 -33 29.5 -56t75.5 -23v-110z" />
    <glyph glyph-name="parenright" unicode=")" horiz-adv-x="349" 
d="M45 -80q46 0 75.5 23t29.5 56v522q0 33 -29.5 55t-75.5 22v112q45 0 85 -15t70 -40.5t47 -60t17 -73.5v-521q0 -39 -17 -74t-47 -60.5t-70 -40.5t-85 -15v110z" />
    <glyph glyph-name="asterisk" unicode="*" horiz-adv-x="478" 
d="M292 600l106 34l30 -100l-103 -33l65 -89l-85 -60l-64 87l-64 -91l-83 64l64 86l-108 36l33 98l107 -34v113h102v-111z" />
    <glyph glyph-name="plus" unicode="+" horiz-adv-x="594" 
d="M352 514v-168h172v-109h-172v-168h-110v168h-172v109h172v168h110z" />
    <glyph glyph-name="comma" unicode="," horiz-adv-x="275" 
d="M81 114h114v-88q0 -48 -11.5 -78t-29.5 -47.5t-40 -24t-44 -6.5v60q29 0 40.5 20t11.5 50h-41v114z" />
    <glyph glyph-name="hyphen" unicode="-" horiz-adv-x="407" 
d="M337 236h-267v107h267v-107z" />
    <glyph glyph-name="period" unicode="." horiz-adv-x="273" 
d="M80 113h113v-113h-113v113z" />
    <glyph glyph-name="slash" unicode="/" horiz-adv-x="359" 
d="M226 700h113l-207 -700h-112z" />
    <glyph glyph-name="zero" unicode="0" horiz-adv-x="609" 
d="M547 483q2 -63 2 -133.5t-2 -133.5q-2 -48 -20.5 -89t-50.5 -72t-75.5 -48.5t-95.5 -17.5q-53 0 -97 17.5t-76 48.5t-50.5 72t-19.5 89q-2 65 -2 134t2 133q1 48 20 89t51 72t76 48.5t96 17.5q53 0 97 -17t76 -47.5t50 -72t19 -90.5zM430 216q2 63 2 133.5t-2 133.5
q-1 49 -34 82t-91 33t-92.5 -33t-35.5 -82q-2 -64 -2 -134t2 -133q1 -49 34.5 -82t93.5 -33q57 0 90.5 33t34.5 82z" />
    <glyph glyph-name="one" unicode="1" horiz-adv-x="346" 
d="M25 642l123 58h108v-700h-117v579l-114 -48v111z" />
    <glyph glyph-name="two" unicode="2" horiz-adv-x="550" 
d="M63 682q29 8 62 14q28 5 64 9.5t74 4.5q51 0 93.5 -11.5t73 -36.5t47.5 -64.5t17 -94.5q0 -37 -6.5 -65.5t-19 -52.5t-30.5 -44t-41 -41l-210 -189h308v-111h-455v126l265 243q20 18 33.5 33.5t22 31t12 33t3.5 39.5q0 51 -35 73t-88 22q-32 0 -64.5 -4t-59.5 -9
q-32 -5 -61 -12z" />
    <glyph glyph-name="three" unicode="3" horiz-adv-x="542" 
d="M40 700h421v-100l-141 -166q30 -6 60 -18.5t53.5 -36.5t38.5 -60.5t15 -88.5q0 -73 -24.5 -119.5t-61.5 -73.5t-80 -37.5t-80 -10.5q-49 0 -87 4.5t-64 9.5q-31 6 -55 15l6 108q25 -8 57 -14q26 -5 62 -9.5t77 -4.5q73 0 102.5 37.5t29.5 96.5q0 37 -13.5 57t-33.5 29.5
t-44 11t-45 1.5h-59v95l137 164h-271v110z" />
    <glyph glyph-name="four" unicode="4" horiz-adv-x="550" 
d="M20 237l247 463h129l-241 -449h193v174h117v-174h70v-111h-70v-140h-117v140h-328v97z" />
    <glyph glyph-name="five" unicode="5" horiz-adv-x="575" 
d="M69 126q34 -8 67 -14q29 -5 61.5 -9.5t59.5 -4.5q41 0 69 8t45 24t24 40.5t7 57.5q0 27 -6 48.5t-20.5 36t-39 22.5t-61.5 8q-29 0 -59 -7t-54 -15q-29 -10 -55 -21l-47 77l25 323h404v-111h-299l-10 -151q18 5 47.5 9.5t62.5 4.5q110 0 170 -53.5t60 -169.5
q0 -51 -14 -94.5t-45 -76t-80.5 -51t-120.5 -18.5q-47 0 -83 4.5t-62 9.5q-30 6 -52 15z" />
    <glyph glyph-name="six" unicode="6" horiz-adv-x="602" 
d="M492 579q-29 6 -60 11q-26 4 -58 7.5t-62 3.5q-36 0 -60.5 -10.5t-40 -28.5t-23 -41.5t-8.5 -48.5q-1 -9 -1 -17.5v-16.5v-16q20 8 44 15q20 5 46 10t54 5q106 0 165 -56t59 -169q0 -57 -17.5 -101t-49.5 -74.5t-77 -46t-99 -15.5q-58 0 -102.5 18.5t-75 50t-47 74.5
t-17.5 91q-3 122 0 249q1 48 17.5 91t47 75.5t76 51.5t105.5 19q36 0 70.5 -3.5t60.5 -8.5q31 -5 58 -12zM307 343q-21 0 -43.5 -5t-41.5 -10q-22 -6 -43 -14v-35v-29t1 -25q0 -25 7.5 -48t22.5 -40.5t38 -28t55 -10.5q126 0 126 129q0 62 -31 89t-91 27z" />
    <glyph glyph-name="seven" unicode="7" horiz-adv-x="470" 
d="M25 700h425v-110l-264 -590h-121l267 590h-307v110z" />
    <glyph glyph-name="eight" unicode="8" horiz-adv-x="607" 
d="M537 516q0 -55 -19.5 -92t-50.5 -62q41 -29 63 -68t22 -101q0 -54 -20 -92.5t-53.5 -63t-78.5 -36t-95 -11.5q-51 0 -96.5 11.5t-79.5 36t-54 63t-20 92.5q0 62 22 101t63 68q-31 26 -50.5 63t-19.5 91q0 42 16.5 78t47 61.5t74 40t97.5 14.5q53 0 96 -15t73 -41
t46.5 -61.5t16.5 -76.5zM305 99q25 0 48.5 5.5t42 17t29.5 30.5t11 46t-11.5 47t-30.5 33.5t-42 20t-47 6.5t-48 -6.5t-42.5 -20t-30.5 -33.5t-12 -47t11 -46t30 -30.5t42.5 -17t49.5 -5.5zM421 514q0 38 -32.5 63t-83.5 25q-55 0 -86.5 -25t-31.5 -63q0 -46 31.5 -72.5
t86.5 -26.5q51 0 83.5 26.5t32.5 72.5z" />
    <glyph glyph-name="nine" unicode="9" horiz-adv-x="602" 
d="M110 121q29 -7 60 -11q26 -5 58 -8t62 -3q36 0 60.5 10.5t40 28.5t23 41t8.5 49q0 8 0.5 17t0.5 17v16q-20 -9 -44 -15q-20 -6 -46 -10.5t-54 -4.5q-106 0 -165 56t-59 169q0 57 17.5 101t49.5 74.5t77 46t99 15.5q58 0 102.5 -18.5t75 -50t47 -74.5t17.5 -91
q3 -122 0 -249q-1 -48 -17.5 -91t-47 -75.5t-76 -51.5t-105.5 -19q-37 0 -71 3.5t-60 8.5q-31 5 -58 12zM295 357q20 0 43 4.5t42 9.5q22 6 43 15v35q0 14 -0.5 29t-0.5 25q0 25 -7.5 48t-22.5 40.5t-38 28t-55 10.5q-126 0 -126 -129q0 -62 31 -89t91 -27z" />
    <glyph glyph-name="colon" unicode=":" horiz-adv-x="273" 
d="M80 113h113v-113h-113v113zM80 500h113v-113h-113v113z" />
    <glyph glyph-name="semicolon" unicode=";" horiz-adv-x="275" 
d="M81 500h113v-113h-113v113zM81 114h114v-88q0 -48 -11.5 -78t-29.5 -47.5t-40 -24t-44 -6.5v60q29 0 40.5 20t11.5 50h-41v114z" />
    <glyph glyph-name="less" unicode="&#x3c;" horiz-adv-x="608" 
d="M65 337l463 220v-122l-327 -144l327 -144v-121l-463 220v91z" />
    <glyph glyph-name="equal" unicode="=" horiz-adv-x="595" 
d="M525 131h-455v106h455v-106zM525 346h-455v106h455v-106z" />
    <glyph glyph-name="greater" unicode="&#x3e;" horiz-adv-x="608" 
d="M543 246l-463 -220v122l327 144l-327 144v121l463 -220v-91z" />
    <glyph glyph-name="question" unicode="?" horiz-adv-x="542" 
d="M50 682q30 8 64 14q29 5 66.5 10t78.5 5q49 0 92 -11.5t74 -35.5t49 -61.5t18 -89.5q0 -61 -17 -94.5t-42 -53t-55 -31t-55 -28t-42 -45t-17 -80.5h-109q0 74 16 116.5t40 66t52 34.5t52 23.5t40 33t16 61.5q0 46 -34.5 65.5t-86.5 19.5q-38 0 -73 -4t-61 -9
q-31 -5 -58 -12zM153 113h113v-113h-113v113z" />
    <glyph glyph-name="at" unicode="@" horiz-adv-x="864" 
d="M649 18q-32 0 -53 7t-35 15q-16 10 -25 23q-20 -12 -42 -22q-19 -8 -42.5 -15t-47.5 -7q-37 0 -65.5 11t-47.5 30.5t-29.5 45.5t-11.5 56q-3 88 0 176q1 30 12 57t32.5 46.5t53 31t73.5 11.5q35 0 68.5 -5t59.5 -11q31 -7 58 -15v-274q0 -29 12 -47t40 -18q16 0 25 8
t13.5 20.5t5.5 27t1 28.5q1 29 1 53.5v50.5v56.5t-1 71.5q-1 37 -19 71.5t-52.5 60.5t-84.5 41.5t-115 15.5q-63 0 -113 -15.5t-85.5 -41.5t-54.5 -60.5t-20 -71.5q-5 -165 0 -330q1 -38 20 -72t53.5 -60t85 -41.5t114.5 -15.5q37 0 70.5 3t59.5 8q30 5 57 12l18 -91
q-30 -7 -63 -12q-29 -5 -65.5 -8t-76.5 -3q-82 0 -148.5 22.5t-114 61t-74 89.5t-28.5 109q-5 163 0 326q2 58 29 109t75 89.5t114.5 61t146.5 22.5q81 0 148 -22.5t114.5 -61t74 -89.5t27.5 -109q1 -41 1 -74.5v-64v-59t-1 -58.5q-1 -44 -16 -73.5t-37 -47.5t-47.5 -25.5
t-47.5 -7.5zM348 324q-3 -78 0 -147q2 -28 13.5 -48t45.5 -20q13 0 30.5 5t32.5 11q18 7 36 17v240q-15 2 -30 5q-13 2 -27.5 4t-27.5 2q-39 0 -55.5 -21t-17.5 -48z" />
    <glyph glyph-name="A" unicode="A" 
d="M390 700l221 -700h-124l-56 182h-232l-56 -182h-123l220 700h150zM316 571l-84 -280h166z" />
    <glyph glyph-name="B" unicode="B" horiz-adv-x="607" 
d="M340 700q105 0 155 -52t50 -141q0 -37 -11.5 -63.5t-25.5 -43.5q-17 -20 -37 -34q24 -13 43 -35q16 -19 29.5 -48.5t13.5 -73.5q0 -50 -13 -88.5t-41.5 -65.5t-73.5 -41t-109 -14h-240v700h260zM196 589v-171h143q41 0 66 22t25 65q0 38 -19.5 61t-59.5 23h-155zM196 111
h128q34 0 56.5 6t35.5 18t18 30.5t5 43.5q0 20 -4.5 38t-16 31.5t-31 21.5t-48.5 8h-143v-197z" />
    <glyph glyph-name="C" unicode="C" horiz-adv-x="562" 
d="M508 577q-35 6 -68 11q-29 4 -60 7.5t-53 3.5q-33 0 -59 -10.5t-44 -27.5t-27.5 -39.5t-10.5 -46.5q-4 -126 0 -250q1 -24 10.5 -46.5t27.5 -39.5t43.5 -27.5t59.5 -10.5q21 0 52.5 3t61.5 8q34 5 72 12l4 -107q-31 -8 -64 -14q-28 -5 -61.5 -9t-64.5 -4
q-59 0 -106.5 18.5t-81.5 50.5t-52.5 75t-19.5 91q-3 125 0 250q1 48 20 91t53 75t81.5 50.5t105.5 18.5q32 0 65 -4t60 -9q32 -6 61 -13z" />
    <glyph glyph-name="D" unicode="D" horiz-adv-x="647" 
d="M80 700h245q58 0 105.5 -17t81.5 -47t53 -71.5t20 -89.5q3 -125 0 -250q-1 -48 -20 -89.5t-52.5 -71.5t-81 -47t-106.5 -17h-245v700zM196 589v-478h129q68 0 103.5 33t37.5 81q3 126 0 250q-2 47 -38.5 80.5t-102.5 33.5h-129z" />
    <glyph glyph-name="E" unicode="E" horiz-adv-x="603" 
d="M543 700v-111h-347v-171h318v-110h-318v-197h357v-111h-473v700h463z" />
    <glyph glyph-name="F" unicode="F" horiz-adv-x="574" 
d="M539 700v-111h-343v-182h314v-111h-314v-296h-116v700h459z" />
    <glyph glyph-name="G" unicode="G" horiz-adv-x="643" 
d="M329 378h244v-347q-36 -12 -76 -21q-35 -8 -78.5 -14t-89.5 -6q-59 0 -107 18.5t-82 50.5t-53 75t-20 91q-3 125 0 250q1 48 20.5 91t54 75t83.5 50.5t109 18.5q49 0 90.5 -5t72.5 -10q36 -6 65 -14l-6 -108q-37 7 -76 13q-33 5 -73.5 9t-77.5 4q-33 0 -59.5 -10.5
t-44.5 -27.5t-27.5 -39.5t-10.5 -46.5q-4 -126 0 -250q1 -24 10.5 -46.5t27.5 -40t44 -28t60 -10.5q23 0 45.5 2t40.5 4q21 3 40 6v156h-126v110z" />
    <glyph glyph-name="H" unicode="H" horiz-adv-x="681" 
d="M601 700v-700h-118v307h-286v-307h-117v700h117v-282h286v282h118z" />
    <glyph glyph-name="I" unicode="I" horiz-adv-x="277" 
d="M197 0h-117v700h117v-700z" />
    <glyph glyph-name="J" unicode="J" horiz-adv-x="332" 
d="M22 102l26 -2q11 -1 24 -1.5t25 -0.5q16 0 24.5 7t12.5 19t5 28t1 35v513h117v-539q0 -49 -11.5 -81.5t-31.5 -52.5t-46 -28.5t-55 -8.5q-14 0 -30 2t-30 5q-17 3 -33 7z" />
    <glyph glyph-name="K" unicode="K" horiz-adv-x="635" 
d="M196 375l258 325h140l-272 -333l293 -367h-149l-270 351v-351h-116v700h116v-325z" />
    <glyph glyph-name="L" unicode="L" horiz-adv-x="529" 
d="M197 700v-589h312v-111h-429v700h117z" />
    <glyph glyph-name="M" unicode="M" horiz-adv-x="790" 
d="M710 0h-117v475l7 70l-31 -75l-121 -201h-106l-120 199l-32 77l7 -73v-472h-117v700h134l181 -322l181 322h134v-700z" />
    <glyph glyph-name="N" unicode="N" horiz-adv-x="684" 
d="M604 700v-700h-131l-246 443l-38 89l7 -92v-440h-116v700h131l246 -443l38 -89l-7 95v437h116z" />
    <glyph glyph-name="O" unicode="O" horiz-adv-x="672" 
d="M605 475q3 -125 0 -250q-1 -48 -21.5 -91t-56.5 -75t-84.5 -50.5t-106.5 -18.5q-59 0 -108 18.5t-84.5 50.5t-55.5 75t-21 91q-3 125 0 250q1 48 21.5 91t56 75t84.5 50.5t107 18.5t107 -18.5t84.5 -50.5t56 -75t21.5 -91zM488 224q3 125 0 252q-1 24 -12 46.5t-31 40.5
t-48 28.5t-61 10.5t-61 -10.5t-48 -28.5t-31 -40.5t-12 -46.5q-3 -127 0 -252q1 -24 12 -46.5t30.5 -40.5t47.5 -28.5t62 -10.5q33 0 61 10.5t48 28t31 40.5t12 47z" />
    <glyph glyph-name="P" unicode="P" horiz-adv-x="595" 
d="M80 700h284q45 0 79.5 -13t58 -35.5t36.5 -52.5t15 -65q3 -68 0 -138q-2 -35 -15 -65t-36.5 -52.5t-58 -35.5t-79.5 -13h-167v-230h-117v700zM434 395q3 70 0 139q-1 23 -16.5 39t-51.5 16h-169v-249h169q38 0 52.5 16.5t15.5 38.5z" />
    <glyph glyph-name="Q" unicode="Q" horiz-adv-x="676" 
d="M605 475q3 -125 0 -250q-1 -21 -5.5 -40t-9.5 -34q-6 -18 -14 -32l65 -84l-78 -56l-54 65q-20 -16 -46 -27q-23 -11 -54.5 -19t-72.5 -8q-59 0 -108 18.5t-84.5 50.5t-55.5 75t-21 91q-3 125 0 250q1 48 21.5 91t56 75t84.5 50.5t107 18.5t107 -18.5t84.5 -50.5t56 -75
t21.5 -91zM488 224q3 125 0 252q-1 24 -12 46.5t-31 40.5t-48 28.5t-61 10.5t-61 -10.5t-48 -28.5t-31 -40.5t-12 -46.5q-3 -127 0 -252q0 -13 5 -30q8 6 22 14.5t33.5 16.5t43 13.5t51.5 5.5q41 0 77 -12.5t68 -32.5q2 6 2.5 12t1.5 13zM336 98q27 0 50.5 7t42.5 20
q-20 14 -43 22t-49 8q-33 0 -56.5 -12.5t-34.5 -20.5q38 -24 90 -24z" />
    <glyph glyph-name="R" unicode="R" 
d="M326 241h-129v-241h-117v700h285q45 0 79.5 -13t58 -35.5t36 -52.5t14.5 -65q2 -34 2 -63t-2 -63q-2 -45 -18 -74t-36 -46q-23 -20 -51 -32l143 -256h-138zM435 407q2 34 2 64t-2 64q-2 23 -16.5 38.5t-51.5 15.5h-170v-236h170q38 0 52.5 15.5t15.5 38.5z" />
    <glyph glyph-name="S" unicode="S" horiz-adv-x="603" 
d="M509 577q-31 6 -65 11q-29 4 -66 7.5t-75 3.5q-26 0 -49.5 -4.5t-41 -15t-28 -26.5t-10.5 -39q0 -40 28.5 -59.5t71 -32t92.5 -24t92.5 -33.5t71 -60.5t28.5 -106.5q0 -100 -65 -154t-204 -54q-50 0 -90.5 4.5t-70.5 9.5q-35 6 -63 15l6 107q34 -8 70 -14q31 -5 68.5 -9
t72.5 -4q84 0 120.5 22t36.5 69q0 31 -16.5 50.5t-43.5 32t-61.5 21t-70.5 18t-70.5 23t-61.5 36t-43.5 56t-16.5 84.5q0 52 19.5 89.5t53 62t79 36t96.5 11.5q45 0 83 -4.5t67 -9.5q33 -6 62 -13z" />
    <glyph glyph-name="T" unicode="T" horiz-adv-x="528" 
d="M20 700h488v-111h-186v-589h-117v589h-185v111z" />
    <glyph glyph-name="U" unicode="U" horiz-adv-x="687" 
d="M612 700v-475q0 -50 -20 -92.5t-56 -74.5t-85 -50t-107 -18q-59 0 -108.5 18t-85 50t-55.5 74.5t-20 92.5v475h117v-467q0 -66 42 -99.5t110 -33.5q66 0 108.5 33.5t42.5 99.5v467h117z" />
    <glyph glyph-name="V" unicode="V" horiz-adv-x="618" 
d="M309 109l167 591h122l-214 -700h-150l-214 700h122z" />
    <glyph glyph-name="W" unicode="W" horiz-adv-x="911" 
d="M526 700l129 -566l94 566h122l-129 -700h-154l-132 544l-133 -544h-154l-129 700h122l94 -564l129 564h141z" />
    <glyph glyph-name="X" unicode="X" horiz-adv-x="653" 
d="M327 457l155 243h136l-221 -341l236 -359h-137l-169 264l-170 -264h-137l237 359l-222 341h137z" />
    <glyph glyph-name="Y" unicode="Y" horiz-adv-x="626" 
d="M313 389l162 311h136l-239 -424v-276h-118v276l-239 424h136z" />
    <glyph glyph-name="Z" unicode="Z" horiz-adv-x="614" 
d="M193 111h371v-111h-514v114l365 475h-357v111h502v-114z" />
    <glyph glyph-name="bracketleft" unicode="[" horiz-adv-x="349" 
d="M304 -180h-219v880h219v-112h-105v-658h105v-110z" />
    <glyph glyph-name="backslash" unicode="\" horiz-adv-x="359" 
d="M339 0h-112l-207 700h113z" />
    <glyph glyph-name="bracketright" unicode="]" horiz-adv-x="350" 
d="M45 -70h106v658h-106v112h220v-880h-220v110z" />
    <glyph glyph-name="asciicircum" unicode="^" horiz-adv-x="527" 
d="M307 700l170 -379h-114l-99 236l-100 -236h-114l170 379h87z" />
    <glyph glyph-name="underscore" unicode="_" horiz-adv-x="577" 
d="M577 -75v-85h-577v85h577z" />
    <glyph glyph-name="grave" unicode="`" horiz-adv-x="267" 
d="M154 555l-154 145h143l124 -145h-113z" />
    <glyph glyph-name="a" unicode="a" horiz-adv-x="504" 
d="M335 36q-19 -13 -40 -23q-18 -9 -41 -16t-47 -7q-75 0 -116 46t-41 118q0 34 9.5 64t28.5 53t48.5 36.5t70.5 13.5h123v14q0 28 -18.5 50.5t-61.5 22.5q-33 0 -62 -3t-52 -7q-26 -4 -49 -10l-11 100q27 6 57 11q26 4 58 7.5t65 3.5q45 0 79.5 -13.5t57.5 -36.5t34.5 -54
t11.5 -65v-341h-99zM210 92q19 0 40 8t39 19q21 11 41 27v73h-119q-30 0 -41 -19t-11 -45t11 -44.5t40 -18.5z" />
    <glyph glyph-name="b" unicode="b" horiz-adv-x="528" 
d="M70 700h110v-224q17 8 36 15q17 6 37 11t41 5q43 0 74.5 -13t53 -35t32.5 -52.5t12 -64.5q3 -93 0 -184q-1 -35 -13 -65.5t-35 -53.5t-58 -36t-83 -13q-37 0 -74 4.5t-66 9.5q-35 6 -67 14v682zM356 166q3 84 0 168q-1 27 -16.5 49t-47.5 22q-19 0 -38.5 -5.5
t-36.5 -11.5q-19 -8 -37 -17v-270q9 -2 23 -4q12 -2 30 -3t44 -1q39 0 58.5 22.5t20.5 50.5z" />
    <glyph glyph-name="c" unicode="c" horiz-adv-x="440" 
d="M410 9q-22 -6 -48 -10q-22 -4 -50.5 -7t-58.5 -3q-46 0 -81 13t-59 36t-37 53.5t-14 65.5q-3 92 0 186q1 34 14 64.5t37.5 53t59.5 36t81 13.5q29 0 56 -2.5t47 -4.5q24 -4 45 -7l-10 -103q-22 3 -46 7l-45 4.5t-48 2.5q-36 0 -58 -21.5t-23 -48.5q-3 -88 0 -174
q1 -27 22.5 -49t58.5 -22q29 0 54.5 2.5t45.5 6.5q23 4 43 10z" />
    <glyph glyph-name="d" unicode="d" horiz-adv-x="530" 
d="M460 0h-100l-4 35q-18 -13 -39 -23q-18 -8 -41.5 -15t-48.5 -7q-40 0 -70.5 12.5t-51 35t-31.5 52.5t-12 65q-3 91 0 183q1 35 13 65.5t36 53.5t59 36.5t83 13.5q16 0 33.5 -3t31.5 -6q17 -4 32 -9v211h110v-700zM172 331q-3 -85 0 -169q1 -27 16.5 -48t47.5 -21
q17 0 37.5 7t37.5 15q20 10 39 22v252q-12 4 -27 8q-13 3 -31 5.5t-39 2.5q-40 0 -60 -23t-21 -51z" />
    <glyph glyph-name="e" unicode="e" horiz-adv-x="503" 
d="M436 18q-22 -8 -50 -14q-24 -5 -57.5 -9.5t-73.5 -4.5q-46 0 -81 13t-59.5 36t-38 53.5t-14.5 65.5q-2 44 -2 88t2 96q1 34 15 64.5t39 53.5t60 36.5t79 13.5q43 0 77.5 -13t59.5 -35t39 -52.5t16 -64.5q1 -17 1 -40.5v-45.5q0 -26 -1 -52h-277v-21t1 -20q2 -29 23.5 -51
t59.5 -22q33 0 63.5 3t53.5 8q27 4 51 11zM171 334q-1 -6 -1 -11v-10v-10h168q-1 7 -1 13v18q-1 29 -23.5 51t-56.5 22q-40 0 -62 -21.5t-24 -51.5z" />
    <glyph glyph-name="f" unicode="f" horiz-adv-x="368" 
d="M20 500h70v64q0 65 38 105.5t108 40.5q15 0 34.5 -2t36.5 -4q20 -3 41 -5l-6 -100l-36 4q-16 2 -34 3.5t-34 1.5q-15 0 -26.5 -11t-11.5 -38v-59h135v-103h-135v-397h-110v397h-70v103z" />
    <glyph glyph-name="g" unicode="g" horiz-adv-x="486" 
d="M411 355q1 -33 0 -68q-2 -52 -35.5 -92t-93.5 -53v-19q0 -13 10 -18l91 -48q34 -18 50.5 -43t16.5 -70q0 -40 -18 -66t-48 -41t-69 -21t-80 -6q-44 0 -79.5 7t-61.5 15q-30 10 -54 22l28 90q26 -10 54 -17q24 -7 53.5 -12t59.5 -5q48 0 76.5 7t28.5 27q0 12 -3 16.5
t-10 8.5l-114 60q-23 12 -33 33t-10 51v30q-62 13 -92.5 52.5t-32.5 91.5q-1 34 0 68q1 31 13.5 59t35.5 48t57 32t78 12q33 0 62 -8l14 20q17 24 38.5 31.5t35.5 7.5q17 0 30.5 -1t24.5 -3q12 -2 22 -4l-11 -91h-49q-7 0 -11.5 -2.5t-6.5 -4.5l-2 -3q32 -35 35 -93z
M302 290q1 31 0 62q-1 22 -20 37t-53 15q-35 0 -54.5 -15t-20.5 -37q-1 -31 0 -62q1 -23 20.5 -37t54.5 -14q34 0 53 14t20 37z" />
    <glyph glyph-name="h" unicode="h" horiz-adv-x="533" 
d="M70 0v700h110v-227q18 9 38 17q17 6 38.5 11.5t44.5 5.5q43 0 74.5 -13t52 -35.5t30.5 -53t10 -64.5v-341h-110v335q0 27 -14 48.5t-47 21.5q-17 0 -37 -5.5t-38 -12.5q-21 -8 -42 -18v-369h-110z" />
    <glyph glyph-name="i" unicode="i" horiz-adv-x="254" 
d="M72 500h110v-500h-110v500zM70 700h114v-114h-114v114z" />
    <glyph glyph-name="j" unicode="j" horiz-adv-x="256" 
d="M72 700h114v-114h-114v114zM184 -44q0 -65 -38.5 -105.5t-108.5 -40.5q-30 0 -58 5q-15 3 -28 6l10 97q10 -2 22 -3q19 -3 53 -3q15 0 26.5 11.5t11.5 38.5v538h110v-544z" />
    <glyph glyph-name="k" unicode="k" horiz-adv-x="516" 
d="M179 246v-246h-109v700h109v-421l181 221h131l-201 -236l216 -264h-134z" />
    <glyph glyph-name="l" unicode="l" horiz-adv-x="250" 
d="M70 700h110v-700h-110v700z" />
    <glyph glyph-name="m" unicode="m" horiz-adv-x="754" 
d="M324 0v350q0 23 -13.5 40.5t-37.5 17.5q-14 0 -30 -6.5t-30 -14.5q-17 -10 -34 -21v-366h-109v500h101l5 -31q18 11 38 20q17 8 38.5 14t44.5 6q24 0 42 -7.5t29 -15.5q13 -10 22 -22q20 12 42 22q19 8 43.5 15.5t50.5 7.5q74 0 118.5 -45t44.5 -123v-341h-109v337
q0 32 -17.5 51.5t-46.5 19.5q-12 0 -26 -5.5t-27 -11.5q-15 -7 -30 -16v-375h-109z" />
    <glyph glyph-name="n" unicode="n" horiz-adv-x="533" 
d="M70 0v500h101l5 -32q19 11 40 21q18 8 40 14.5t45 6.5q43 0 74.5 -13.5t52 -36.5t30.5 -54t10 -65v-341h-110v335q0 27 -14 50t-47 23q-18 0 -39 -6.5t-38 -14.5q-20 -10 -40 -21v-366h-110z" />
    <glyph glyph-name="o" unicode="o" horiz-adv-x="523" 
d="M461 158q-1 -35 -15.5 -65.5t-40 -53.5t-62 -36t-81.5 -13q-48 0 -85 13t-62 36t-38.5 53.5t-14.5 65.5q-3 91 0 184q1 34 14.5 64.5t38.5 53.5t62 36.5t85 13.5q45 0 81.5 -13.5t62 -36.5t40 -53.5t15.5 -64.5q3 -93 0 -184zM351 336q-1 29 -24 50t-66 21q-42 0 -65 -21
t-24 -50q-2 -42 -2 -86.5t2 -85.5q1 -29 24 -50t66 -21q42 0 65 21t24 50q3 86 0 172z" />
    <glyph glyph-name="p" unicode="p" horiz-adv-x="530" 
d="M70 500h100l4 -28q21 10 42 19q18 7 39 13t41 6q43 0 74.5 -12.5t53 -35t32.5 -52.5t12 -65q3 -91 0 -183q-1 -35 -13 -65.5t-36 -53.5t-59 -36.5t-83 -13.5q-17 0 -34 2.5t-31 6.5q-17 4 -32 9v-191h-110v680zM358 169q3 84 0 169q-1 27 -16.5 48t-47.5 21
q-16 0 -35.5 -6t-36.5 -14q-20 -9 -42 -20v-256q12 -4 27 -8q13 -3 30.5 -5.5t39.5 -2.5q40 0 60 23t21 51z" />
    <glyph glyph-name="q" unicode="q" horiz-adv-x="528" 
d="M458 -180h-110v204q-17 -9 -36 -16q-17 -6 -37.5 -10.5t-40.5 -4.5q-43 0 -74.5 13t-53 35t-32.5 52t-12 65q-3 93 0 184q1 35 13 65.5t35 53.5t58 36t83 13q37 0 73.5 -4.5t66.5 -9.5q34 -6 67 -14v-662zM172 334q-3 -84 0 -168q1 -27 16.5 -49t47.5 -22q19 0 38.5 5
t36.5 12q19 7 37 17v270q-9 2 -23 4q-12 2 -30 3t-44 1q-39 0 -58.5 -22.5t-20.5 -50.5z" />
    <glyph glyph-name="r" unicode="r" horiz-adv-x="337" 
d="M327 407q-35 0 -62 -10.5t-46 -22.5q-22 -15 -39 -33v-341h-110v500h101l4 -48q19 17 43 29q20 11 48 19.5t61 9.5v-103z" />
    <glyph glyph-name="s" unicode="s" horiz-adv-x="471" 
d="M382 389q-26 5 -52 9q-23 3 -48 6t-47 3q-31 0 -50.5 -10.5t-19.5 -35.5q0 -20 19 -31t47.5 -19t61.5 -17t61.5 -26t47.5 -45.5t19 -75.5q0 -75 -46 -116t-148 -41q-35 0 -65.5 4t-53.5 9q-27 5 -50 13l14 99q23 -7 49 -11q22 -5 48.5 -8t52.5 -3q49 0 68.5 12t19.5 38
q0 22 -19 33t-47 19t-61.5 16.5t-61.5 25.5t-47 45.5t-19 76.5q0 39 13.5 67.5t37.5 47t57 27.5t72 9q29 0 57.5 -3.5t51.5 -7.5q26 -4 50 -10z" />
    <glyph glyph-name="t" unicode="t" horiz-adv-x="362" 
d="M20 500h71v120h110v-120h131v-103h-131v-255q0 -28 8.5 -39t28.5 -11q15 0 30.5 1t28.5 3q15 2 28 4l6 -99q-14 -3 -32 -6q-15 -2 -34.5 -3.5t-39.5 -1.5q-35 0 -60 10.5t-41.5 29.5t-24.5 44.5t-8 54.5v268h-71v103z" />
    <glyph glyph-name="u" unicode="u" horiz-adv-x="533" 
d="M463 500v-500h-101l-5 32q-19 -12 -40 -21q-18 -8 -40.5 -14.5t-44.5 -6.5q-43 0 -74.5 13.5t-52 36.5t-30.5 53.5t-10 65.5v341h110v-335q0 -27 14 -50t47 -23q18 0 38.5 7t37.5 15q20 10 41 22v364h110z" />
    <glyph glyph-name="v" unicode="v" horiz-adv-x="479" 
d="M239 107l109 393h116l-154 -500h-141l-154 500h116z" />
    <glyph glyph-name="w" unicode="w" horiz-adv-x="701" 
d="M414 500l78 -327l11 -64l4 64l39 327h115l-79 -500h-146l-76 313l-9 67l-10 -67l-76 -313h-146l-79 500h116l38 -327l4 -64l11 64l78 327h127z" />
    <glyph glyph-name="x" unicode="x" horiz-adv-x="502" 
d="M251 351l94 149h126l-160 -241l171 -259h-126l-105 164l-105 -164h-126l171 259l-160 241h126z" />
    <glyph glyph-name="y" unicode="y" horiz-adv-x="515" 
d="M15 500h114l123 -365h5l132 365h111l-261 -680h-111l80 200l-28 10z" />
    <glyph glyph-name="z" unicode="z" horiz-adv-x="447" 
d="M170 102h237v-102h-367v104l234 294h-224v102h354v-104z" />
    <glyph glyph-name="braceleft" unicode="{" horiz-adv-x="353" 
d="M308 -190q-45 0 -85 15t-69.5 40.5t-46.5 60.5t-17 74v175q0 17 -15 24.5t-35 7.5v106q20 0 35 8t15 24v176q0 39 17 73.5t46.5 60t69.5 40.5t85 15v-110q-45 0 -74.5 -23.5t-29.5 -55.5v-177q0 -21 -7.5 -36.5t-15.5 -26.5q-10 -12 -22 -21q12 -9 22 -21
q8 -11 15.5 -26.5t7.5 -37.5v-176q0 -33 29.5 -56t74.5 -23v-110z" />
    <glyph glyph-name="bar" unicode="|" horiz-adv-x="267" 
d="M85 700h97v-880h-97v880z" />
    <glyph glyph-name="braceright" unicode="}" horiz-adv-x="353" 
d="M45 -80q45 0 74.5 23t29.5 56v176q0 22 7 37.5t15 26.5q10 12 23 21q-13 9 -23 21q-8 11 -15 26.5t-7 36.5v177q0 32 -29.5 55.5t-74.5 23.5v110q45 0 85 -15t69.5 -40.5t46.5 -60t17 -73.5v-176q0 -16 15 -24t35 -8v-106q-20 0 -35 -7.5t-15 -24.5v-175q0 -39 -17 -74
t-46.5 -60.5t-69.5 -40.5t-85 -15v110z" />
    <glyph glyph-name="asciitilde" unicode="~" horiz-adv-x="628" 
d="M412 206q-29 0 -55.5 10.5t-50.5 23.5t-46.5 23.5t-43.5 10.5q-20 0 -36 -15.5t-39 -52.5l-81 52q15 23 30 45t33 39t40.5 27.5t52.5 10.5q29 0 55.5 -10.5t50.5 -23.5t46.5 -23.5t43.5 -10.5q20 0 36 15.5t39 52.5l81 -52q-15 -23 -30 -45t-33 -39t-40.5 -27.5
t-52.5 -10.5z" />
    <glyph glyph-name="uni00A0" unicode="&#xa0;" horiz-adv-x="220" 
 />
    <glyph glyph-name="exclamdown" unicode="&#xa1;" horiz-adv-x="302" 
d="M102 312h98l12 -512h-122zM207 387h-113v113h113v-113z" />
    <glyph glyph-name="cent" unicode="&#xa2;" horiz-adv-x="480" 
d="M206 5q-67 14 -102 58.5t-37 104.5q-3 92 0 186q2 58 37.5 102.5t101.5 58.5v53h103v-49q20 -2 38 -4t32 -4q16 -3 28 -4l-10 -103q-22 3 -46 7l-45 4.5t-48 2.5q-36 0 -58 -21.5t-23 -48.5q-3 -88 0 -174q1 -27 22.5 -49t58.5 -22q29 0 54.5 2.5t45.5 6.5q23 4 43 10
l14 -102q-14 -3 -31 -7q-30 -6 -75 -11v-50h-103v53z" />
    <glyph glyph-name="sterling" unicode="&#xa3;" horiz-adv-x="580" 
d="M75 409h40q-11 49 -11 102q0 55 18 93.5t50.5 61.5t76.5 33.5t96 10.5q29 0 58.5 -2.5t53.5 -5.5q28 -4 55 -8l-6 -109q-27 3 -55 7q-24 2 -52 4.5t-54 2.5q-27 0 -49.5 -4.5t-39.5 -14.5t-26.5 -27t-9.5 -42q0 -32 5 -57t11 -45h252v-102h-224q2 -12 3 -25t1 -28
q0 -26 -6.5 -52t-14.5 -46q-10 -24 -21 -45h304v-111h-452v107q20 16 36 38q14 19 25.5 46t11.5 63q0 13 -2.5 25.5t-6.5 27.5h-67v102z" />
    <glyph glyph-name="currency" unicode="&#xa4;" horiz-adv-x="598" 
d="M147 519l51 -51q42 27 100 27t102 -28l53 52l74 -76l-64 -63q3 -11 6 -25t3 -26v-81q0 -12 -2.5 -25t-5.5 -23l64 -63l-77 -77l-51 52q-21 -14 -47 -21.5t-55 -7.5q-32 0 -56.5 6t-45.5 22l-51 -50l-75 75l62 62q-3 11 -5 24.5t-2 25.5v81q0 13 3 26t5 24l-62 64z
M358 343q0 26 -17 39.5t-45 13.5q-26 0 -42.5 -13.5t-16.5 -39.5v-108q0 -26 17 -39.5t44 -13.5q26 0 43 13t17 39v109z" />
    <glyph glyph-name="yen" unicode="&#xa5;" horiz-adv-x="624" 
d="M520 150h-150v-150h-116v150h-150v101h140l-25 56h-115v102h69l-133 291h132l140 -331l140 331h132l-133 -291h69v-102h-114l-26 -56h140v-101z" />
    <glyph glyph-name="brokenbar" unicode="&#xa6;" horiz-adv-x="267" 
d="M85 700h97v-369h-97v369zM85 189h97v-369h-97v369z" />
    <glyph glyph-name="section" unicode="&#xa7;" horiz-adv-x="598" 
d="M462 149q0 -1 9 -8.5t19.5 -22.5t19.5 -37.5t9 -53.5q0 -93 -60 -137.5t-163 -44.5q-35 0 -69 2.5t-61 6.5q-32 4 -60 10l7 104q35 -5 68 -9q29 -4 59 -6.5t53 -2.5q57 0 82.5 18t25.5 57q0 32 -24.5 47t-61.5 24t-79.5 16.5t-79.5 24.5t-61.5 49t-24.5 90q0 27 10.5 51
t23 42t23 28.5t10.5 11.5q-17 11 -29 29q-11 15 -19.5 37t-8.5 54q0 93 59.5 137.5t163.5 44.5q35 0 69 -3t61 -7q32 -4 60 -9l-7 -104q-35 5 -68 9q-29 3 -59.5 6t-52.5 3q-57 0 -82.5 -18t-25.5 -57q0 -32 24.5 -47t61 -24t79.5 -16.5t79.5 -25.5t61 -50.5t24.5 -90.5
q0 -26 -10.5 -49.5t-22.5 -40.5q-15 -20 -33 -38zM217 362q1 0 -4 -5t-11 -14.5t-11 -22.5t-5 -28q0 -30 23 -46.5t54.5 -25.5t64 -14t52.5 -12q9 9 16 20q6 9 11 21.5t5 28.5q0 30 -23 46.5t-54.5 25.5t-64.5 14t-53 12z" />
    <glyph glyph-name="dieresis" unicode="&#xa8;" horiz-adv-x="313" 
d="M0 688h114v-114h-114v114zM198 688h114v-114h-114v114z" />
    <glyph glyph-name="copyright" unicode="&#xa9;" horiz-adv-x="840" 
d="M60 350q0 75 28.5 140.5t77 114t114 77t140.5 28.5t140.5 -28.5t114 -77t77 -114t28.5 -140.5t-28.5 -140.5t-77 -114t-114 -77t-140.5 -28.5t-140.5 28.5t-114 77t-77 114t-28.5 140.5zM141 350q0 -58 22 -108.5t60 -88.5t88.5 -60t108.5 -22t108.5 22t88.5 60t60 88.5
t22 108.5t-22 108.5t-60 88.5t-88.5 60t-108.5 22t-108.5 -22t-88.5 -60t-60 -88.5t-22 -108.5zM539 162q-18 -4 -38 -8q-17 -3 -39.5 -5.5t-45.5 -2.5q-36 0 -63.5 10.5t-46 28t-28.5 41.5t-11 51q-3 73 0 147q1 27 11 50.5t29 41.5t46.5 28.5t63.5 10.5q23 0 43 -2t37 -4
q18 -3 36 -5l-8 -81q-18 2 -36 5q-16 2 -35 3.5t-38 1.5q-29 0 -45.5 -16.5t-17.5 -37.5q-2 -33 -2 -68.5t2 -68.5q1 -21 17.5 -38t45.5 -17q22 0 42 2t36 5q18 4 34 8z" />
    <glyph glyph-name="ordfeminine" unicode="&#xaa;" horiz-adv-x="398" 
d="M245 390q-11 -9 -24 -15q-11 -6 -27 -10.5t-33 -4.5q-45 0 -73 31.5t-28 80.5q0 48 26.5 78t83.5 30h72q0 23 -10 35.5t-29 12.5q-20 0 -40.5 -2t-37.5 -4l-38 -6l-10 78q20 4 41 8q18 3 40 5.5t44 2.5q63 0 94.5 -33.5t31.5 -82.5v-229h-78zM172 437q9 0 21 4.5t23 9.5
q12 6 26 15v45h-69q-14 0 -21.5 -10.5t-7.5 -27.5q0 -16 7.5 -26t20.5 -10zM69 314h259v-75h-259v75z" />
    <glyph glyph-name="guillemotleft" unicode="&#xab;" horiz-adv-x="615" 
d="M191 125l-126 165l126 166h129l-132 -165l133 -166h-130zM415 125l-126 165l126 166h129l-132 -165l133 -166h-130z" />
    <glyph glyph-name="logicalnot" unicode="&#xac;" horiz-adv-x="594" 
d="M524 70h-111v166h-343v107h454v-273z" />
    <glyph glyph-name="uni00AD" unicode="&#xad;" horiz-adv-x="833" 
 />
    <glyph glyph-name="registered" unicode="&#xae;" horiz-adv-x="588" 
d="M298 423h-35v-85h-53v258h105q34 0 52.5 -18t20.5 -45q1 -22 0 -47q-1 -36 -34 -54l56 -94h-65zM330 494q1 16 0 32q-1 6 -4 10.5t-14 4.5h-49v-66h49q11 0 14 6t4 13zM50 467q0 50 19.5 94.5t52.5 77.5t77.5 52.5t94.5 19.5q51 0 95.5 -19.5t77.5 -52.5t52 -77.5
t19 -94.5t-19 -94.5t-52 -77.5t-77.5 -52.5t-95.5 -19.5q-50 0 -94.5 19.5t-77.5 52.5t-52.5 77.5t-19.5 94.5zM104 467q0 -40 15 -74.5t40.5 -60t60 -40.5t74.5 -15t74.5 15t60 40.5t40.5 60t15 74.5t-15 74.5t-40.5 60t-60 40.5t-74.5 15t-74.5 -15t-60 -40.5t-40.5 -60
t-15 -74.5z" />
    <glyph glyph-name="macron" unicode="&#xaf;" horiz-adv-x="317" 
d="M0 673h317v-100h-317v100z" />
    <glyph glyph-name="degree" unicode="&#xb0;" horiz-adv-x="407" 
d="M50 558q0 31 12 59t33 49t49 33t60 12q31 0 59 -12t49 -33t33 -49t12 -59q0 -32 -12 -60t-33 -49t-49 -33t-59 -12q-32 0 -60 12t-49 33t-33 49t-12 60zM131 558q0 -30 21.5 -51.5t51.5 -21.5t51.5 21.5t21.5 51.5t-21.5 51.5t-51.5 21.5t-51.5 -21.5t-21.5 -51.5z" />
    <glyph glyph-name="plusminus" unicode="&#xb1;" horiz-adv-x="594" 
d="M524 0h-454v106h454v-106zM352 533v-137h172v-107h-172v-137h-110v137h-172v107h172v137h110z" />
    <glyph glyph-name="uni00B2" unicode="&#xb2;" horiz-adv-x="411" 
d="M73 691q18 5 39 9q17 4 40 7t48 3q32 0 59.5 -7.5t48 -24t32 -43t11.5 -63.5q0 -48 -15.5 -77.5t-46.5 -55.5l-101 -88h160v-93h-288v94l155 147q23 21 30 37.5t7 33.5q0 26 -16 37t-41 11q-17 0 -38 -3t-39 -7q-21 -4 -42 -9z" />
    <glyph glyph-name="uni00B3" unicode="&#xb3;" horiz-adv-x="406" 
d="M62 700h270v-80l-77 -87q17 -5 33.5 -14t29 -23.5t20.5 -36.5t8 -54q0 -48 -15.5 -79t-38.5 -48.5t-50 -24.5t-51 -7q-28 0 -51.5 3.5t-41.5 8.5q-21 5 -38 12l3 89q19 -6 40 -10q18 -4 40 -7t45 -3q35 0 49 19t14 49q0 17 -6.5 26t-16 13.5t-20.5 5.5t-21 1h-49v73
l70 83h-146v91z" />
    <glyph glyph-name="acute" unicode="&#xb4;" horiz-adv-x="266" 
d="M0 555l124 145h143l-154 -145h-113z" />
    <glyph glyph-name="mu" unicode="&#xb5;" horiz-adv-x="538" 
d="M70 500h109v-335q0 -28 15.5 -50.5t54.5 -22.5q18 0 37.5 7t35.5 15q18 10 36 23v363h110v-500h-101l-5 37q-17 -13 -35 -23q-16 -9 -36.5 -16t-42.5 -7q-17 0 -29.5 3t-21.5 7q-11 4 -18 11v-192h-109v680z" />
    <glyph glyph-name="paragraph" unicode="&#xb6;" horiz-adv-x="580" 
d="M237 297q-39 3 -73 20.5t-59.5 44.5t-40 61.5t-14.5 72.5q0 42 16.5 79.5t44.5 65t65.5 43.5t80.5 16h243v-880h-101v772h-67v-772h-95v477z" />
    <glyph glyph-name="periodcentered" unicode="&#xb7;" horiz-adv-x="273" 
d="M80 347h113v-113h-113v113z" />
    <glyph glyph-name="cedilla" unicode="&#xb8;" horiz-adv-x="231" 
d="M231 -106q0 -42 -27.5 -63t-71.5 -21q-20 0 -36.5 2t-28.5 4q-14 3 -26 6l6 58q10 -2 21 -4q19 -3 47 -3q8 0 15 6.5t7 19.5q0 9 -6 15.5t-14 6.5h-47l18 79h77l-6 -30q14 -2 27 -5.5t23 -11.5t16 -22t6 -37z" />
    <glyph glyph-name="uni00B9" unicode="&#xb9;" horiz-adv-x="285" 
d="M50 659l83 41h82v-443h-98v341l-67 -32v93z" />
    <glyph glyph-name="ordmasculine" unicode="&#xba;" horiz-adv-x="398" 
d="M336 476q-2 -48 -37.5 -82t-98.5 -34q-33 0 -58 9t-42.5 25t-27 37t-10.5 44q-3 59 0 120q1 24 10.5 44.5t26.5 36.5t42.5 25t58.5 9q63 0 98.5 -33.5t37.5 -82.5q3 -60 0 -118zM249 590q-1 16 -13 28t-37 12q-22 0 -35 -12.5t-14 -28.5q-3 -55 0 -109q1 -15 14 -27
t36 -12t35.5 12t13.5 27q3 54 0 110zM68 314h262v-75h-262v75z" />
    <glyph glyph-name="guillemotright" unicode="&#xbb;" horiz-adv-x="615" 
d="M294 125l133 166l-132 165h129l126 -166l-126 -165h-130zM70 125l133 166l-132 165h129l126 -166l-126 -165h-130z" />
    <glyph glyph-name="onequarter" unicode="&#xbc;" horiz-adv-x="890" 
d="M473 159l143 286h112l-139 -269h96v106h94v-106h41v-91h-41v-85h-94v85h-212v74zM509 700h94l-317 -700h-97zM70 659l83 41h82v-443h-98v341l-67 -32v93z" />
    <glyph glyph-name="onehalf" unicode="&#xbd;" horiz-adv-x="912" 
d="M509 700h94l-317 -700h-97zM70 659l83 41h82v-443h-98v341l-67 -32v93zM564 433q18 5 39 9q17 4 40 7t48 3q32 0 59.5 -7.5t48 -24t32 -43t11.5 -63.5q0 -48 -15.5 -77.5t-46.5 -55.5l-101 -88h160v-93h-288v94l155 147q23 21 30 37.5t7 33.5q0 26 -16 37t-41 11
q-17 0 -38 -3t-39 -7q-21 -4 -42 -9z" />
    <glyph glyph-name="threequarters" unicode="&#xbe;" horiz-adv-x="975" 
d="M557 159l143 286h112l-139 -269h96v106h94v-106h41v-91h-41v-85h-94v85h-212v74zM593 700h94l-317 -700h-97zM72 700h270v-80l-77 -87q17 -5 33.5 -14t29 -23.5t20.5 -36.5t8 -54q0 -48 -15.5 -79t-38.5 -48.5t-50 -24.5t-51 -7q-28 0 -51.5 3.5t-41.5 8.5q-21 5 -38 12
l3 89q19 -6 40 -10q18 -4 40 -7t45 -3q35 0 49 19t14 49q0 17 -6.5 26t-16 13.5t-20.5 5.5t-21 1h-49v73l70 83h-146v91z" />
    <glyph glyph-name="questiondown" unicode="&#xbf;" horiz-adv-x="542" 
d="M492 -182q-30 -9 -64 -15q-29 -5 -66.5 -9.5t-78.5 -4.5q-50 0 -92.5 11.5t-73.5 35.5t-49 61.5t-18 89.5q0 61 17 94.5t42 53t55 31t55 28t42 44.5t17 81h109q0 -74 -16 -116.5t-40 -66t-52 -34.5t-52 -23.5t-40 -33t-16 -61.5q0 -46 34.5 -65.5t86.5 -19.5q38 0 73 3.5
t61 8.5q31 5 58 13zM389 387h-113v113h113v-113z" />
    <glyph glyph-name="Agrave" unicode="&#xc0;" 
d="M390 700l221 -700h-124l-56 182h-232l-56 -182h-123l220 700h150zM316 571l-84 -280h166zM259 755l-154 145h143l124 -145h-113z" />
    <glyph glyph-name="Aacute" unicode="&#xc1;" 
d="M390 700l221 -700h-124l-56 182h-232l-56 -182h-123l220 700h150zM316 571l-84 -280h166zM252 755l124 145h143l-154 -145h-113z" />
    <glyph glyph-name="Acircumflex" unicode="&#xc2;" 
d="M390 700l221 -700h-124l-56 182h-232l-56 -182h-123l220 700h150zM316 571l-84 -280h166zM137 755l112 145h133l112 -145h-110l-69 76l-69 -76h-109z" />
    <glyph glyph-name="Atilde" unicode="&#xc3;" 
d="M390 700l221 -700h-124l-56 182h-232l-56 -182h-123l220 700h150zM316 571l-84 -280h166zM147 757q0 25 6.5 49t18.5 43t28.5 30.5t37.5 11.5q26 0 46 -7.5t35.5 -16t29 -16t25.5 -7.5t18 15t6 29h86q0 -25 -6.5 -49t-18 -42.5t-28 -30t-36.5 -11.5q-27 0 -47 7t-35.5 16
t-28.5 16t-25 7q-13 0 -19.5 -14t-8.5 -30h-84z" />
    <glyph glyph-name="Adieresis" unicode="&#xc4;" 
d="M390 700l221 -700h-124l-56 182h-232l-56 -182h-123l220 700h150zM316 571l-84 -280h166zM159 888h114v-114h-114v114zM357 888h114v-114h-114v114z" />
    <glyph glyph-name="Aring" unicode="&#xc5;" 
d="M390 700l221 -700h-124l-56 182h-232l-56 -182h-123l220 700h150zM316 571l-84 -280h166zM218 826q0 19 7 36t20 29.5t30.5 19.5t37.5 7q19 0 37 -7t31 -19.5t21 -29.5t8 -36t-8 -35.5t-21 -29t-31 -19.5t-37 -7q-41 0 -68 26.5t-27 64.5zM280 826q0 -14 9.5 -23.5
t23.5 -9.5t23.5 9.5t9.5 23.5t-9.5 23.5t-23.5 9.5t-23.5 -9.5t-9.5 -23.5z" />
    <glyph glyph-name="AE" unicode="&#xc6;" horiz-adv-x="983" 
d="M924 700v-111h-330v-171h300v-110h-300v-197h339v-111h-455v183h-237l-103 -183h-128l398 700h516zM478 588h-9l-166 -296h175v296z" />
    <glyph glyph-name="Ccedilla" unicode="&#xc7;" horiz-adv-x="562" 
d="M508 577q-35 6 -68 11q-29 4 -60 7.5t-53 3.5q-33 0 -59 -10.5t-44 -27.5t-27.5 -39.5t-10.5 -46.5q-4 -126 0 -250q1 -24 10.5 -46.5t27.5 -39.5t43.5 -27.5t59.5 -10.5q21 0 52.5 3t61.5 8q34 5 72 12l4 -107q-22 -6 -47 -10q-21 -4 -47 -8.5t-53 -6.5l-4 -22
q14 -2 27 -5.5t23 -11.5t16 -22t6 -37q0 -42 -27.5 -63t-71.5 -21q-20 0 -36.5 2t-28.5 4q-14 3 -26 6l6 58q10 -2 21 -4q19 -3 47 -3q8 0 15 6.5t7 19.5q0 9 -6 15.5t-14 6.5h-47l16 71q-52 5 -93 25.5t-70.5 51.5t-45.5 71t-17 85q-3 125 0 250q1 48 20 91t53 75
t81.5 50.5t105.5 18.5q32 0 65 -4t60 -9q32 -6 61 -13z" />
    <glyph glyph-name="Egrave" unicode="&#xc8;" horiz-adv-x="603" 
d="M543 700v-111h-347v-171h318v-110h-318v-197h357v-111h-473v700h463zM295 755l-154 145h143l124 -145h-113z" />
    <glyph glyph-name="Eacute" unicode="&#xc9;" horiz-adv-x="603" 
d="M543 700v-111h-347v-171h318v-110h-318v-197h357v-111h-473v700h463zM275 755l124 145h143l-154 -145h-113z" />
    <glyph glyph-name="Ecircumflex" unicode="&#xca;" horiz-adv-x="603" 
d="M543 700v-111h-347v-171h318v-110h-318v-197h357v-111h-473v700h463zM150 755l112 145h133l112 -145h-110l-69 76l-69 -76h-109z" />
    <glyph glyph-name="Edieresis" unicode="&#xcb;" horiz-adv-x="603" 
d="M543 700v-111h-347v-171h318v-110h-318v-197h357v-111h-473v700h463zM183 888h114v-114h-114v114zM381 888h114v-114h-114v114z" />
    <glyph glyph-name="Igrave" unicode="&#xcc;" horiz-adv-x="277" 
d="M197 0h-117v700h117v-700zM83 755l-154 145h143l124 -145h-113z" />
    <glyph glyph-name="Iacute" unicode="&#xcd;" horiz-adv-x="277" 
d="M197 0h-117v700h117v-700zM76 755l124 145h143l-154 -145h-113z" />
    <glyph glyph-name="Icircumflex" unicode="&#xce;" horiz-adv-x="277" 
d="M197 0h-117v700h117v-700zM-40 755l112 145h133l112 -145h-110l-69 76l-69 -76h-109z" />
    <glyph glyph-name="Idieresis" unicode="&#xcf;" horiz-adv-x="277" 
d="M197 0h-117v700h117v-700zM-17 888h114v-114h-114v114zM181 888h114v-114h-114v114z" />
    <glyph glyph-name="Eth" unicode="&#xd0;" horiz-adv-x="645" 
d="M78 307h-58v111h58v282h245q58 0 105.5 -17t81.5 -47t53 -71.5t20 -89.5q3 -125 0 -250q-1 -48 -20 -89.5t-52.5 -71.5t-81 -47t-106.5 -17h-245v307zM194 307v-196h129q68 0 103.5 33t37.5 81q3 126 0 250q-2 47 -38.5 80.5t-102.5 33.5h-129v-171h139v-111h-139z" />
    <glyph glyph-name="Ntilde" unicode="&#xd1;" horiz-adv-x="684" 
d="M604 700v-700h-131l-246 443l-38 89l7 -92v-440h-116v700h131l246 -443l38 -89l-7 95v437h116zM173 757q0 25 6.5 49t18.5 43t28.5 30.5t37.5 11.5q26 0 46 -7.5t35.5 -16t29 -16t25.5 -7.5t18 15t6 29h86q0 -25 -6.5 -49t-18 -42.5t-28 -30t-36.5 -11.5q-27 0 -47 7
t-35.5 16t-28.5 16t-25 7q-13 0 -19.5 -14t-8.5 -30h-84z" />
    <glyph glyph-name="Ograve" unicode="&#xd2;" horiz-adv-x="672" 
d="M605 475q3 -125 0 -250q-1 -48 -21.5 -91t-56.5 -75t-84.5 -50.5t-106.5 -18.5q-59 0 -108 18.5t-84.5 50.5t-55.5 75t-21 91q-3 125 0 250q1 48 21.5 91t56 75t84.5 50.5t107 18.5t107 -18.5t84.5 -50.5t56 -75t21.5 -91zM488 224q3 125 0 252q-1 24 -12 46.5t-31 40.5
t-48 28.5t-61 10.5t-61 -10.5t-48 -28.5t-31 -40.5t-12 -46.5q-3 -127 0 -252q1 -24 12 -46.5t30.5 -40.5t47.5 -28.5t62 -10.5q33 0 61 10.5t48 28t31 40.5t12 47zM287 755l-154 145h143l124 -145h-113z" />
    <glyph glyph-name="Oacute" unicode="&#xd3;" horiz-adv-x="672" 
d="M605 475q3 -125 0 -250q-1 -48 -21.5 -91t-56.5 -75t-84.5 -50.5t-106.5 -18.5q-59 0 -108 18.5t-84.5 50.5t-55.5 75t-21 91q-3 125 0 250q1 48 21.5 91t56 75t84.5 50.5t107 18.5t107 -18.5t84.5 -50.5t56 -75t21.5 -91zM488 224q3 125 0 252q-1 24 -12 46.5t-31 40.5
t-48 28.5t-61 10.5t-61 -10.5t-48 -28.5t-31 -40.5t-12 -46.5q-3 -127 0 -252q1 -24 12 -46.5t30.5 -40.5t47.5 -28.5t62 -10.5q33 0 61 10.5t48 28t31 40.5t12 47zM272 755l124 145h143l-154 -145h-113z" />
    <glyph glyph-name="Ocircumflex" unicode="&#xd4;" horiz-adv-x="672" 
d="M605 475q3 -125 0 -250q-1 -48 -21.5 -91t-56.5 -75t-84.5 -50.5t-106.5 -18.5q-59 0 -108 18.5t-84.5 50.5t-55.5 75t-21 91q-3 125 0 250q1 48 21.5 91t56 75t84.5 50.5t107 18.5t107 -18.5t84.5 -50.5t56 -75t21.5 -91zM488 224q3 125 0 252q-1 24 -12 46.5t-31 40.5
t-48 28.5t-61 10.5t-61 -10.5t-48 -28.5t-31 -40.5t-12 -46.5q-3 -127 0 -252q1 -24 12 -46.5t30.5 -40.5t47.5 -28.5t62 -10.5q33 0 61 10.5t48 28t31 40.5t12 47zM157 755l112 145h133l112 -145h-110l-69 76l-69 -76h-109z" />
    <glyph glyph-name="Otilde" unicode="&#xd5;" horiz-adv-x="672" 
d="M605 475q3 -125 0 -250q-1 -48 -21.5 -91t-56.5 -75t-84.5 -50.5t-106.5 -18.5q-59 0 -108 18.5t-84.5 50.5t-55.5 75t-21 91q-3 125 0 250q1 48 21.5 91t56 75t84.5 50.5t107 18.5t107 -18.5t84.5 -50.5t56 -75t21.5 -91zM488 224q3 125 0 252q-1 24 -12 46.5t-31 40.5
t-48 28.5t-61 10.5t-61 -10.5t-48 -28.5t-31 -40.5t-12 -46.5q-3 -127 0 -252q1 -24 12 -46.5t30.5 -40.5t47.5 -28.5t62 -10.5q33 0 61 10.5t48 28t31 40.5t12 47zM167 757q0 25 6.5 49t18.5 43t28.5 30.5t37.5 11.5q26 0 46 -7.5t35.5 -16t29 -16t25.5 -7.5t18 15t6 29h86
q0 -25 -6.5 -49t-18 -42.5t-28 -30t-36.5 -11.5q-27 0 -47 7t-35.5 16t-28.5 16t-25 7q-13 0 -19.5 -14t-8.5 -30h-84z" />
    <glyph glyph-name="Odieresis" unicode="&#xd6;" horiz-adv-x="672" 
d="M605 475q3 -125 0 -250q-1 -48 -21.5 -91t-56.5 -75t-84.5 -50.5t-106.5 -18.5q-59 0 -108 18.5t-84.5 50.5t-55.5 75t-21 91q-3 125 0 250q1 48 21.5 91t56 75t84.5 50.5t107 18.5t107 -18.5t84.5 -50.5t56 -75t21.5 -91zM488 224q3 125 0 252q-1 24 -12 46.5t-31 40.5
t-48 28.5t-61 10.5t-61 -10.5t-48 -28.5t-31 -40.5t-12 -46.5q-3 -127 0 -252q1 -24 12 -46.5t30.5 -40.5t47.5 -28.5t62 -10.5q33 0 61 10.5t48 28t31 40.5t12 47zM180 888h114v-114h-114v114zM378 888h114v-114h-114v114z" />
    <glyph glyph-name="multiply" unicode="&#xd7;" horiz-adv-x="550" 
d="M71 164l129 128l-130 131l75 75l130 -131l130 130l75 -75l-130 -130l128 -128l-75 -75l-128 128l-129 -128z" />
    <glyph glyph-name="Oslash" unicode="&#xd8;" horiz-adv-x="672" 
d="M605 475q3 -125 0 -250q-1 -48 -21.5 -91t-56.5 -75t-84.5 -50.5t-106.5 -18.5q-42 0 -78.5 9.5t-67.5 26.5l-16 -26h-108l52 85q-49 60 -51 140q-3 125 0 250q1 48 21.5 91t56 75t84.5 50.5t107 18.5q42 0 78 -9.5t67 -26.5l16 26h108l-53 -85q25 -29 38.5 -65t14.5 -75
zM488 224q3 125 0 252q-1 7 -2 13.5t-3 13.5l-235 -382q37 -23 88 -23q33 0 61 10.5t48 28t31 40.5t12 47zM184 224q0 -15 4 -26l234 381q-18 11 -39.5 17t-46.5 6q-33 0 -61 -10.5t-48 -28.5t-31 -40.5t-12 -46.5q-3 -127 0 -252z" />
    <glyph glyph-name="Ugrave" unicode="&#xd9;" horiz-adv-x="687" 
d="M612 700v-475q0 -50 -20 -92.5t-56 -74.5t-85 -50t-107 -18q-59 0 -108.5 18t-85 50t-55.5 74.5t-20 92.5v475h117v-467q0 -66 42 -99.5t110 -33.5q66 0 108.5 33.5t42.5 99.5v467h117zM309 755l-154 145h143l124 -145h-113z" />
    <glyph glyph-name="Uacute" unicode="&#xda;" horiz-adv-x="687" 
d="M612 700v-475q0 -50 -20 -92.5t-56 -74.5t-85 -50t-107 -18q-59 0 -108.5 18t-85 50t-55.5 74.5t-20 92.5v475h117v-467q0 -66 42 -99.5t110 -33.5q66 0 108.5 33.5t42.5 99.5v467h117zM281 755l124 145h143l-154 -145h-113z" />
    <glyph glyph-name="Ucircumflex" unicode="&#xdb;" horiz-adv-x="687" 
d="M612 700v-475q0 -50 -20 -92.5t-56 -74.5t-85 -50t-107 -18q-59 0 -108.5 18t-85 50t-55.5 74.5t-20 92.5v475h117v-467q0 -66 42 -99.5t110 -33.5q66 0 108.5 33.5t42.5 99.5v467h117zM165 755l112 145h133l112 -145h-110l-69 76l-69 -76h-109z" />
    <glyph glyph-name="Udieresis" unicode="&#xdc;" horiz-adv-x="687" 
d="M612 700v-475q0 -50 -20 -92.5t-56 -74.5t-85 -50t-107 -18q-59 0 -108.5 18t-85 50t-55.5 74.5t-20 92.5v475h117v-467q0 -66 42 -99.5t110 -33.5q66 0 108.5 33.5t42.5 99.5v467h117zM187 888h114v-114h-114v114zM385 888h114v-114h-114v114z" />
    <glyph glyph-name="Yacute" unicode="&#xdd;" horiz-adv-x="626" 
d="M313 389l162 311h136l-239 -424v-276h-118v276l-239 424h136zM258 755l124 145h143l-154 -145h-113z" />
    <glyph glyph-name="Thorn" unicode="&#xde;" horiz-adv-x="595" 
d="M80 700h117v-86h167q45 0 79.5 -13t58 -35.5t36.5 -52.5t15 -65q3 -68 0 -138q-2 -35 -15 -65t-36.5 -52.5t-58 -35.5t-79.5 -13h-167v-144h-117v700zM434 309q3 70 0 139q-1 23 -16.5 39t-51.5 16h-169v-249h169q38 0 52.5 16.5t15.5 38.5z" />
    <glyph glyph-name="germandbls" unicode="&#xdf;" horiz-adv-x="568" 
d="M247 105q13 -3 27 -6q12 -2 26.5 -4t28.5 -2q49 0 69 13t20 40q0 26 -11.5 42t-28 28.5t-36.5 24.5t-36.5 28.5t-28 41t-11.5 62.5q0 35 16.5 62t36.5 44q23 20 53 34v22q0 32 -26.5 52.5t-68.5 20.5t-70 -20.5t-28 -52.5v-535h-109v542q0 35 14.5 65.5t41.5 53.5
t65.5 36t86.5 13q42 0 78.5 -13t63.5 -36t42 -53.5t15 -65.5v-76q-29 -11 -51 -25q-20 -12 -35.5 -29t-15.5 -38q0 -18 11.5 -31t28.5 -25.5t36.5 -26t36.5 -32t28.5 -44.5t11.5 -63q0 -75 -46.5 -117t-148.5 -42q-21 0 -39 2t-32 4q-16 3 -29 6z" />
    <glyph glyph-name="agrave" unicode="&#xe0;" horiz-adv-x="504" 
d="M335 36q-19 -13 -40 -23q-18 -9 -41 -16t-47 -7q-75 0 -116 46t-41 118q0 34 9.5 64t28.5 53t48.5 36.5t70.5 13.5h123v14q0 28 -18.5 50.5t-61.5 22.5q-33 0 -62 -3t-52 -7q-26 -4 -49 -10l-11 100q27 6 57 11q26 4 58 7.5t65 3.5q45 0 79.5 -13.5t57.5 -36.5t34.5 -54
t11.5 -65v-341h-99zM210 92q19 0 40 8t39 19q21 11 41 27v73h-119q-30 0 -41 -19t-11 -45t11 -44.5t40 -18.5zM198 555l-154 145h143l124 -145h-113z" />
    <glyph glyph-name="aacute" unicode="&#xe1;" horiz-adv-x="504" 
d="M335 36q-19 -13 -40 -23q-18 -9 -41 -16t-47 -7q-75 0 -116 46t-41 118q0 34 9.5 64t28.5 53t48.5 36.5t70.5 13.5h123v14q0 28 -18.5 50.5t-61.5 22.5q-33 0 -62 -3t-52 -7q-26 -4 -49 -10l-11 100q27 6 57 11q26 4 58 7.5t65 3.5q45 0 79.5 -13.5t57.5 -36.5t34.5 -54
t11.5 -65v-341h-99zM210 92q19 0 40 8t39 19q21 11 41 27v73h-119q-30 0 -41 -19t-11 -45t11 -44.5t40 -18.5zM180 555l124 145h143l-154 -145h-113z" />
    <glyph glyph-name="acircumflex" unicode="&#xe2;" horiz-adv-x="504" 
d="M335 36q-19 -13 -40 -23q-18 -9 -41 -16t-47 -7q-75 0 -116 46t-41 118q0 34 9.5 64t28.5 53t48.5 36.5t70.5 13.5h123v14q0 28 -18.5 50.5t-61.5 22.5q-33 0 -62 -3t-52 -7q-26 -4 -49 -10l-11 100q27 6 57 11q26 4 58 7.5t65 3.5q45 0 79.5 -13.5t57.5 -36.5t34.5 -54
t11.5 -65v-341h-99zM210 92q19 0 40 8t39 19q21 11 41 27v73h-119q-30 0 -41 -19t-11 -45t11 -44.5t40 -18.5zM73 555l112 145h133l112 -145h-110l-69 76l-69 -76h-109z" />
    <glyph glyph-name="atilde" unicode="&#xe3;" horiz-adv-x="504" 
d="M335 36q-19 -13 -40 -23q-18 -9 -41 -16t-47 -7q-75 0 -116 46t-41 118q0 34 9.5 64t28.5 53t48.5 36.5t70.5 13.5h123v14q0 28 -18.5 50.5t-61.5 22.5q-33 0 -62 -3t-52 -7q-26 -4 -49 -10l-11 100q27 6 57 11q26 4 58 7.5t65 3.5q45 0 79.5 -13.5t57.5 -36.5t34.5 -54
t11.5 -65v-341h-99zM210 92q19 0 40 8t39 19q21 11 41 27v73h-119q-30 0 -41 -19t-11 -45t11 -44.5t40 -18.5zM83 557q0 25 6.5 49t18.5 43t28.5 30.5t37.5 11.5q26 0 46 -7.5t35.5 -16t29 -16t25.5 -7.5t18 15t6 29h86q0 -25 -6.5 -49t-18 -42.5t-28 -30t-36.5 -11.5
q-27 0 -47 7t-35.5 16t-28.5 16t-25 7q-13 0 -19.5 -14t-8.5 -30h-84z" />
    <glyph glyph-name="adieresis" unicode="&#xe4;" horiz-adv-x="504" 
d="M335 36q-19 -13 -40 -23q-18 -9 -41 -16t-47 -7q-75 0 -116 46t-41 118q0 34 9.5 64t28.5 53t48.5 36.5t70.5 13.5h123v14q0 28 -18.5 50.5t-61.5 22.5q-33 0 -62 -3t-52 -7q-26 -4 -49 -10l-11 100q27 6 57 11q26 4 58 7.5t65 3.5q45 0 79.5 -13.5t57.5 -36.5t34.5 -54
t11.5 -65v-341h-99zM210 92q19 0 40 8t39 19q21 11 41 27v73h-119q-30 0 -41 -19t-11 -45t11 -44.5t40 -18.5zM96 688h114v-114h-114v114zM294 688h114v-114h-114v114z" />
    <glyph glyph-name="aring" unicode="&#xe5;" horiz-adv-x="504" 
d="M335 36q-19 -13 -40 -23q-18 -9 -41 -16t-47 -7q-75 0 -116 46t-41 118q0 34 9.5 64t28.5 53t48.5 36.5t70.5 13.5h123v14q0 28 -18.5 50.5t-61.5 22.5q-33 0 -62 -3t-52 -7q-26 -4 -49 -10l-11 100q27 6 57 11q26 4 58 7.5t65 3.5q45 0 79.5 -13.5t57.5 -36.5t34.5 -54
t11.5 -65v-341h-99zM210 92q19 0 40 8t39 19q21 11 41 27v73h-119q-30 0 -41 -19t-11 -45t11 -44.5t40 -18.5zM156 626q0 19 7 36t20 29.5t30.5 19.5t37.5 7q19 0 37 -7t31 -19.5t21 -29.5t8 -36t-8 -35.5t-21 -29t-31 -19.5t-37 -7q-41 0 -68 26.5t-27 64.5zM218 626
q0 -14 9.5 -23.5t23.5 -9.5t23.5 9.5t9.5 23.5t-9.5 23.5t-23.5 9.5t-23.5 -9.5t-9.5 -23.5z" />
    <glyph glyph-name="ae" unicode="&#xe6;" horiz-adv-x="768" 
d="M701 18q-21 -8 -47 -14q-23 -5 -55.5 -9.5t-72.5 -4.5t-69 9.5t-48 21.5q-22 14 -37 32q-24 -18 -50 -32q-23 -12 -53 -21.5t-62 -9.5q-75 0 -116 46t-41 118q0 68 38 110t119 42h123v29q0 28 -18.5 50.5t-61.5 22.5q-33 0 -62 -3t-52 -7q-26 -4 -49 -10l-11 100
q27 6 57 11q26 4 58 7.5t65 3.5q44 0 77.5 -13t56.5 -35q25 22 59 35t77 13t76.5 -13t57.5 -35t37 -52.5t15 -64.5q1 -17 1 -40.5v-45.5q0 -26 -1 -52h-271v-21t1 -20q2 -29 23.5 -51t59.5 -22q33 0 62.5 3t51.5 8q26 4 48 11zM210 92q19 0 40.5 8.5t40.5 19.5q22 12 43 28
q-1 10 -2 21q-1 9 -1.5 19t-0.5 20h-119q-30 0 -41 -13.5t-11 -39.5t11 -44.5t40 -18.5zM442 334q-1 -6 -1 -11v-10v-10h166q-1 7 -1 13v18q-1 29 -22.5 51t-55.5 22q-40 0 -62 -21.5t-24 -51.5z" />
    <glyph glyph-name="ccedilla" unicode="&#xe7;" horiz-adv-x="440" 
d="M410 9q-17 -4 -36 -8q-17 -3 -38.5 -6t-45.5 -5l-4 -20q14 -2 27 -5.5t23 -11.5t16 -22t6 -37q0 -42 -27.5 -63t-71.5 -21q-20 0 -36.5 2t-28.5 4q-14 3 -26 6l6 58q10 -2 21 -4q19 -3 47 -3q8 0 15 6.5t7 19.5q0 9 -6 15.5t-14 6.5h-47l16 71q-73 11 -111 57t-40 108
q-3 92 0 186q1 34 14 64.5t37.5 53t59.5 36t81 13.5q29 0 56 -2.5t47 -4.5q24 -4 45 -7l-10 -103q-22 3 -46 7l-45 4.5t-48 2.5q-36 0 -58 -21.5t-23 -48.5q-3 -88 0 -174q1 -27 22.5 -49t58.5 -22q29 0 54.5 2.5t45.5 6.5q23 4 43 10z" />
    <glyph glyph-name="egrave" unicode="&#xe8;" horiz-adv-x="503" 
d="M436 18q-22 -8 -50 -14q-24 -5 -57.5 -9.5t-73.5 -4.5q-46 0 -81 13t-59.5 36t-38 53.5t-14.5 65.5q-2 44 -2 88t2 96q1 34 15 64.5t39 53.5t60 36.5t79 13.5q43 0 77.5 -13t59.5 -35t39 -52.5t16 -64.5q1 -17 1 -40.5v-45.5q0 -26 -1 -52h-277v-21t1 -20q2 -29 23.5 -51
t59.5 -22q33 0 63.5 3t53.5 8q27 4 51 11zM171 334q-1 -6 -1 -11v-10v-10h168q-1 7 -1 13v18q-1 29 -23.5 51t-56.5 22q-40 0 -62 -21.5t-24 -51.5zM209 555l-154 145h143l124 -145h-113z" />
    <glyph glyph-name="eacute" unicode="&#xe9;" horiz-adv-x="503" 
d="M436 18q-22 -8 -50 -14q-24 -5 -57.5 -9.5t-73.5 -4.5q-46 0 -81 13t-59.5 36t-38 53.5t-14.5 65.5q-2 44 -2 88t2 96q1 34 15 64.5t39 53.5t60 36.5t79 13.5q43 0 77.5 -13t59.5 -35t39 -52.5t16 -64.5q1 -17 1 -40.5v-45.5q0 -26 -1 -52h-277v-21t1 -20q2 -29 23.5 -51
t59.5 -22q33 0 63.5 3t53.5 8q27 4 51 11zM171 334q-1 -6 -1 -11v-10v-10h168q-1 7 -1 13v18q-1 29 -23.5 51t-56.5 22q-40 0 -62 -21.5t-24 -51.5zM182 555l124 145h143l-154 -145h-113z" />
    <glyph glyph-name="ecircumflex" unicode="&#xea;" horiz-adv-x="503" 
d="M436 18q-22 -8 -50 -14q-24 -5 -57.5 -9.5t-73.5 -4.5q-46 0 -81 13t-59.5 36t-38 53.5t-14.5 65.5q-2 44 -2 88t2 96q1 34 15 64.5t39 53.5t60 36.5t79 13.5q43 0 77.5 -13t59.5 -35t39 -52.5t16 -64.5q1 -17 1 -40.5v-45.5q0 -26 -1 -52h-277v-21t1 -20q2 -29 23.5 -51
t59.5 -22q33 0 63.5 3t53.5 8q27 4 51 11zM171 334q-1 -6 -1 -11v-10v-10h168q-1 7 -1 13v18q-1 29 -23.5 51t-56.5 22q-40 0 -62 -21.5t-24 -51.5zM73 555l112 145h133l112 -145h-110l-69 76l-69 -76h-109z" />
    <glyph glyph-name="edieresis" unicode="&#xeb;" horiz-adv-x="503" 
d="M436 18q-22 -8 -50 -14q-24 -5 -57.5 -9.5t-73.5 -4.5q-46 0 -81 13t-59.5 36t-38 53.5t-14.5 65.5q-2 44 -2 88t2 96q1 34 15 64.5t39 53.5t60 36.5t79 13.5q43 0 77.5 -13t59.5 -35t39 -52.5t16 -64.5q1 -17 1 -40.5v-45.5q0 -26 -1 -52h-277v-21t1 -20q2 -29 23.5 -51
t59.5 -22q33 0 63.5 3t53.5 8q27 4 51 11zM171 334q-1 -6 -1 -11v-10v-10h168q-1 7 -1 13v18q-1 29 -23.5 51t-56.5 22q-40 0 -62 -21.5t-24 -51.5zM95 688h114v-114h-114v114zM293 688h114v-114h-114v114z" />
    <glyph glyph-name="igrave" unicode="&#xec;" horiz-adv-x="254" 
d="M72 500h110v-500h-110v500zM70 555l-154 145h143l124 -145h-113z" />
    <glyph glyph-name="iacute" unicode="&#xed;" horiz-adv-x="254" 
d="M72 500h110v-500h-110v500zM65 555l124 145h143l-154 -145h-113z" />
    <glyph glyph-name="icircumflex" unicode="&#xee;" horiz-adv-x="254" 
d="M72 500h110v-500h-110v500zM-51 555l112 145h133l112 -145h-110l-69 76l-69 -76h-109z" />
    <glyph glyph-name="idieresis" unicode="&#xef;" horiz-adv-x="254" 
d="M72 500h110v-500h-110v500zM-29 688h114v-114h-114v114zM169 688h114v-114h-114v114z" />
    <glyph glyph-name="eth" unicode="&#xf0;" horiz-adv-x="544" 
d="M261 578l26 12q-11 8 -32 14t-42 6q-8 0 -18 -0.5t-19 -0.5q-11 -1 -22 -1l-7 99q12 0 23 1q10 1 21.5 1.5t21.5 0.5q57 0 98.5 -19.5t72.5 -50.5l92 48v-90l-45 -22q18 -37 29.5 -90.5t13.5 -133.5q3 -86 0 -192q-1 -35 -16 -66t-41.5 -54t-63.5 -36.5t-82 -13.5
q-50 0 -87.5 13t-63 36t-39 54t-14.5 67q-1 23 -1.5 40.5t-0.5 34t0.5 34t1.5 40.5q1 33 14.5 63.5t39 53.5t63 37t87.5 14q17 0 32.5 -3t27.5 -7q14 -4 26 -9q0 20 -6.5 41t-11.5 30l-78 -40v89zM271 93q21 0 38 6.5t29 17t18 23t6 25.5v192q-13 5 -28 9q-13 4 -29.5 7
t-34.5 3q-43 0 -66.5 -21t-24.5 -51q-1 -21 -1.5 -37.5t-0.5 -31.5t0.5 -31.5t1.5 -37.5q1 -29 24.5 -51t67.5 -22z" />
    <glyph glyph-name="ntilde" unicode="&#xf1;" horiz-adv-x="533" 
d="M70 0v500h101l5 -32q19 11 40 21q18 8 40 14.5t45 6.5q43 0 74.5 -13.5t52 -36.5t30.5 -54t10 -65v-341h-110v335q0 27 -14 50t-47 23q-18 0 -39 -6.5t-38 -14.5q-20 -10 -40 -21v-366h-110zM98 557q0 25 6.5 49t18.5 43t28.5 30.5t37.5 11.5q26 0 46 -7.5t35.5 -16
t29 -16t25.5 -7.5t18 15t6 29h86q0 -25 -6.5 -49t-18 -42.5t-28 -30t-36.5 -11.5q-27 0 -47 7t-35.5 16t-28.5 16t-25 7q-13 0 -19.5 -14t-8.5 -30h-84z" />
    <glyph glyph-name="ograve" unicode="&#xf2;" horiz-adv-x="523" 
d="M461 158q-1 -35 -15.5 -65.5t-40 -53.5t-62 -36t-81.5 -13q-48 0 -85 13t-62 36t-38.5 53.5t-14.5 65.5q-3 91 0 184q1 34 14.5 64.5t38.5 53.5t62 36.5t85 13.5q45 0 81.5 -13.5t62 -36.5t40 -53.5t15.5 -64.5q3 -93 0 -184zM351 336q-1 29 -24 50t-66 21q-42 0 -65 -21
t-24 -50q-2 -42 -2 -86.5t2 -85.5q1 -29 24 -50t66 -21q42 0 65 21t24 50q3 86 0 172zM208 555l-154 145h143l124 -145h-113z" />
    <glyph glyph-name="oacute" unicode="&#xf3;" horiz-adv-x="523" 
d="M461 158q-1 -35 -15.5 -65.5t-40 -53.5t-62 -36t-81.5 -13q-48 0 -85 13t-62 36t-38.5 53.5t-14.5 65.5q-3 91 0 184q1 34 14.5 64.5t38.5 53.5t62 36.5t85 13.5q45 0 81.5 -13.5t62 -36.5t40 -53.5t15.5 -64.5q3 -93 0 -184zM351 336q-1 29 -24 50t-66 21q-42 0 -65 -21
t-24 -50q-2 -42 -2 -86.5t2 -85.5q1 -29 24 -50t66 -21q42 0 65 21t24 50q3 86 0 172zM189 555l124 145h143l-154 -145h-113z" />
    <glyph glyph-name="ocircumflex" unicode="&#xf4;" horiz-adv-x="523" 
d="M461 158q-1 -35 -15.5 -65.5t-40 -53.5t-62 -36t-81.5 -13q-48 0 -85 13t-62 36t-38.5 53.5t-14.5 65.5q-3 91 0 184q1 34 14.5 64.5t38.5 53.5t62 36.5t85 13.5q45 0 81.5 -13.5t62 -36.5t40 -53.5t15.5 -64.5q3 -93 0 -184zM351 336q-1 29 -24 50t-66 21q-42 0 -65 -21
t-24 -50q-2 -42 -2 -86.5t2 -85.5q1 -29 24 -50t66 -21q42 0 65 21t24 50q3 86 0 172zM83 555l112 145h133l112 -145h-110l-69 76l-69 -76h-109z" />
    <glyph glyph-name="otilde" unicode="&#xf5;" horiz-adv-x="523" 
d="M461 158q-1 -35 -15.5 -65.5t-40 -53.5t-62 -36t-81.5 -13q-48 0 -85 13t-62 36t-38.5 53.5t-14.5 65.5q-3 91 0 184q1 34 14.5 64.5t38.5 53.5t62 36.5t85 13.5q45 0 81.5 -13.5t62 -36.5t40 -53.5t15.5 -64.5q3 -93 0 -184zM351 336q-1 29 -24 50t-66 21q-42 0 -65 -21
t-24 -50q-2 -42 -2 -86.5t2 -85.5q1 -29 24 -50t66 -21q42 0 65 21t24 50q3 86 0 172zM93 557q0 25 6.5 49t18.5 43t28.5 30.5t37.5 11.5q26 0 46 -7.5t35.5 -16t29 -16t25.5 -7.5t18 15t6 29h86q0 -25 -6.5 -49t-18 -42.5t-28 -30t-36.5 -11.5q-27 0 -47 7t-35.5 16
t-28.5 16t-25 7q-13 0 -19.5 -14t-8.5 -30h-84z" />
    <glyph glyph-name="odieresis" unicode="&#xf6;" horiz-adv-x="523" 
d="M461 158q-1 -35 -15.5 -65.5t-40 -53.5t-62 -36t-81.5 -13q-48 0 -85 13t-62 36t-38.5 53.5t-14.5 65.5q-3 91 0 184q1 34 14.5 64.5t38.5 53.5t62 36.5t85 13.5q45 0 81.5 -13.5t62 -36.5t40 -53.5t15.5 -64.5q3 -93 0 -184zM351 336q-1 29 -24 50t-66 21q-42 0 -65 -21
t-24 -50q-2 -42 -2 -86.5t2 -85.5q1 -29 24 -50t66 -21q42 0 65 21t24 50q3 86 0 172zM105 688h114v-114h-114v114zM303 688h114v-114h-114v114z" />
    <glyph glyph-name="divide" unicode="&#xf7;" horiz-adv-x="594" 
d="M524 343v-103h-454v103h454zM241 182h113v-113h-113v113zM241 514h113v-113h-113v113z" />
    <glyph glyph-name="oslash" unicode="&#xf8;" horiz-adv-x="526" 
d="M92 64q-28 40 -30 94q-3 91 0 184q1 34 14.5 64.5t38.5 53.5t62 36.5t85 13.5q61 0 108 -25l10 15h96l-45 -69q14 -20 21.5 -42.5t8.5 -46.5q3 -93 0 -184q-1 -35 -15.5 -65.5t-40 -53.5t-62 -36t-81.5 -13q-62 0 -108 22l-8 -12h-96zM168 338q-2 -39 -2 -80.5t1 -80.5
l146 222q-11 5 -24 8.5t-28 3.5q-44 0 -68 -22t-25 -51zM355 162q2 38 2 77.5t-1 78.5l-145 -219q23 -10 51 -10q44 0 68 22t25 51z" />
    <glyph glyph-name="ugrave" unicode="&#xf9;" horiz-adv-x="533" 
d="M463 500v-500h-101l-5 32q-19 -12 -40 -21q-18 -8 -40.5 -14.5t-44.5 -6.5q-43 0 -74.5 13.5t-52 36.5t-30.5 53.5t-10 65.5v341h110v-335q0 -27 14 -50t47 -23q18 0 38.5 7t37.5 15q20 10 41 22v364h110zM218 555l-154 145h143l124 -145h-113z" />
    <glyph glyph-name="uacute" unicode="&#xfa;" horiz-adv-x="533" 
d="M463 500v-500h-101l-5 32q-19 -12 -40 -21q-18 -8 -40.5 -14.5t-44.5 -6.5q-43 0 -74.5 13.5t-52 36.5t-30.5 53.5t-10 65.5v341h110v-335q0 -27 14 -50t47 -23q18 0 38.5 7t37.5 15q20 10 41 22v364h110zM206 555l124 145h143l-154 -145h-113z" />
    <glyph glyph-name="ucircumflex" unicode="&#xfb;" horiz-adv-x="533" 
d="M463 500v-500h-101l-5 32q-19 -12 -40 -21q-18 -8 -40.5 -14.5t-44.5 -6.5q-43 0 -74.5 13.5t-52 36.5t-30.5 53.5t-10 65.5v341h110v-335q0 -27 14 -50t47 -23q18 0 38.5 7t37.5 15q20 10 41 22v364h110zM88 555l112 145h133l112 -145h-110l-69 76l-69 -76h-109z" />
    <glyph glyph-name="udieresis" unicode="&#xfc;" horiz-adv-x="533" 
d="M463 500v-500h-101l-5 32q-19 -12 -40 -21q-18 -8 -40.5 -14.5t-44.5 -6.5q-43 0 -74.5 13.5t-52 36.5t-30.5 53.5t-10 65.5v341h110v-335q0 -27 14 -50t47 -23q18 0 38.5 7t37.5 15q20 10 41 22v364h110zM110 688h114v-114h-114v114zM308 688h114v-114h-114v114z" />
    <glyph glyph-name="yacute" unicode="&#xfd;" horiz-adv-x="515" 
d="M15 500h114l123 -365h5l132 365h111l-261 -680h-111l80 200l-28 10zM203 555l124 145h143l-154 -145h-113z" />
    <glyph glyph-name="thorn" unicode="&#xfe;" horiz-adv-x="530" 
d="M70 700h110v-226q19 10 39 18q17 7 37 12.5t40 5.5q43 0 74.5 -12.5t53 -35t32.5 -52.5t12 -65q3 -91 0 -183q-1 -35 -13 -65.5t-36 -53.5t-59 -36.5t-83 -13.5q-17 0 -34 2.5t-31 6.5q-17 4 -32 9v-191h-110v880zM358 169q3 84 0 169q-1 27 -16.5 48t-47.5 21
q-16 0 -35.5 -6t-36.5 -14q-20 -9 -42 -20v-256q12 -4 27 -8q13 -3 30.5 -5.5t39.5 -2.5q40 0 60 23t21 51z" />
    <glyph glyph-name="ydieresis" unicode="&#xff;" horiz-adv-x="515" 
d="M15 500h114l123 -365h5l132 365h111l-261 -680h-111l80 200l-28 10zM108 688h114v-114h-114v114zM306 688h114v-114h-114v114z" />
    <glyph glyph-name="OE" unicode="&#x152;" horiz-adv-x="942" 
d="M882 700v-111h-330v-171h301v-110h-301v-197h340v-111h-565q-59 0 -106.5 17t-81.5 47t-52.5 71.5t-19.5 89.5q-3 125 0 250q1 48 20 89.5t53 71.5t81.5 47t105.5 17h555zM186 225q2 -48 37 -80.5t104 -32.5h108v476h-108q-33 0 -59 -9t-44 -24t-27.5 -35.5t-10.5 -44.5
q-3 -126 0 -250z" />
    <glyph glyph-name="oe" unicode="&#x153;" horiz-adv-x="798" 
d="M731 18q-22 -8 -50 -14q-24 -5 -57.5 -9.5t-73.5 -4.5q-47 0 -82.5 13.5t-60.5 37.5q-26 -24 -62.5 -37.5t-82.5 -13.5q-48 0 -85 13t-62 36t-38.5 53.5t-14.5 65.5q-3 91 0 184q1 34 14.5 64.5t38.5 53.5t62 36.5t85 13.5q46 0 83 -14.5t63 -38.5q25 24 61 38.5t81 14.5
q43 0 77.5 -13t59.5 -35t39 -52.5t16 -64.5q1 -17 1 -40.5v-45.5q0 -26 -1 -52h-277v-21t1 -20q2 -29 23.5 -51t59.5 -22q33 0 63.5 3t53.5 8q27 4 51 11zM351 336q-1 29 -24 50t-66 21q-42 0 -65 -21t-24 -50q-2 -42 -2 -86.5t2 -85.5q1 -29 24 -50t66 -21q42 0 65 21
t24 50q3 86 0 172zM466 334q-1 -6 -1 -11v-10v-10h168q-1 7 -1 13v18q-1 29 -23.5 51t-56.5 22q-40 0 -62 -21.5t-24 -51.5z" />
    <glyph glyph-name="Scaron" unicode="&#x160;" horiz-adv-x="603" 
d="M509 577q-31 6 -65 11q-29 4 -66 7.5t-75 3.5q-26 0 -49.5 -4.5t-41 -15t-28 -26.5t-10.5 -39q0 -40 28.5 -59.5t71 -32t92.5 -24t92.5 -33.5t71 -60.5t28.5 -106.5q0 -100 -65 -154t-204 -54q-50 0 -90.5 4.5t-70.5 9.5q-35 6 -63 15l6 107q34 -8 70 -14q31 -5 68.5 -9
t72.5 -4q84 0 120.5 22t36.5 69q0 41 -28.5 62.5t-71 34.5t-92.5 24.5t-92.5 33.5t-71 60t-28.5 106q0 52 19.5 89.5t53 62t79 36t96.5 11.5q45 0 83 -4.5t67 -9.5q33 -6 62 -13zM270 900l69 -76l69 76h110l-112 -145h-133l-112 145h109z" />
    <glyph glyph-name="scaron" unicode="&#x161;" horiz-adv-x="471" 
d="M382 389q-26 5 -52 9q-23 3 -48 6t-47 3q-31 0 -50.5 -10.5t-19.5 -35.5q0 -20 19 -31t47.5 -19t61.5 -17t61.5 -26t47.5 -45.5t19 -75.5q0 -75 -46 -116t-148 -41q-35 0 -65.5 4t-53.5 9q-27 5 -50 13l14 99q23 -7 49 -11q22 -5 48.5 -8t52.5 -3q49 0 68.5 12t19.5 38
q0 22 -19 33t-47 19t-61.5 16.5t-61.5 25.5t-47 45.5t-19 76.5q0 39 13.5 67.5t37.5 47t57 27.5t72 9q29 0 57.5 -3.5t51.5 -7.5q26 -4 50 -10zM204 700l69 -76l69 76h110l-112 -145h-133l-112 145h109z" />
    <glyph glyph-name="Ydieresis" unicode="&#x178;" horiz-adv-x="626" 
d="M313 389l162 311h136l-239 -424v-276h-118v276l-239 424h136zM157 888h114v-114h-114v114zM355 888h114v-114h-114v114z" />
    <glyph glyph-name="Zcaron" unicode="&#x17d;" horiz-adv-x="614" 
d="M193 111h371v-111h-514v114l365 475h-357v111h502v-114zM276 900l69 -76l69 76h110l-112 -145h-133l-112 145h109z" />
    <glyph glyph-name="zcaron" unicode="&#x17e;" horiz-adv-x="447" 
d="M170 102h237v-102h-367v104l234 294h-224v102h354v-104zM192 700l69 -76l69 76h110l-112 -145h-133l-112 145h109z" />
    <glyph glyph-name="florin" unicode="&#x192;" horiz-adv-x="487" 
d="M225 -53q-3 -29 -13.5 -54t-29 -43.5t-44.5 -29t-60 -10.5q-17 0 -34.5 2t-31.5 4q-17 3 -32 7l17 99q11 -3 23 -5q11 -2 25 -3t31 -1q15 0 26.5 11.5t14.5 39.5l39 368h-71l10 103h71l14 132q7 64 47.5 104t110.5 40q14 0 32 -2t34 -4q18 -3 38 -6l-20 -99l-30 4
q-13 2 -29 3.5t-31 1.5q-17 0 -28.5 -11t-14.5 -40l-13 -123h131l-10 -103h-131z" />
    <glyph glyph-name="circumflex" unicode="&#x2c6;" horiz-adv-x="357" 
d="M0 555l112 145h133l112 -145h-110l-69 76l-69 -76h-109z" />
    <glyph glyph-name="tilde" unicode="&#x2dc;" horiz-adv-x="337" 
d="M0 557q0 25 6.5 49t18.5 43t28.5 30.5t37.5 11.5q26 0 46 -7.5t35.5 -16t29 -16t25.5 -7.5t18 15t6 29h86q0 -25 -6.5 -49t-18 -42.5t-28 -30t-36.5 -11.5q-27 0 -47 7t-35.5 16t-28.5 16t-25 7q-13 0 -19.5 -14t-8.5 -30h-84z" />
    <glyph glyph-name="endash" unicode="&#x2013;" horiz-adv-x="411" 
d="M411 236h-411v107h411v-107z" />
    <glyph glyph-name="emdash" unicode="&#x2014;" horiz-adv-x="822" 
d="M822 236h-822v107h822v-107z" />
    <glyph glyph-name="quoteleft" unicode="&#x2018;" horiz-adv-x="205" 
d="M144 467h-114v88q0 48 11.5 78t29.5 47.5t40 24t44 6.5v-60q-29 0 -40.5 -20t-11.5 -50h41v-114z" />
    <glyph glyph-name="quoteright" unicode="&#x2019;" horiz-adv-x="206" 
d="M62 700h114v-88q0 -48 -11.5 -78t-29.5 -47.5t-40 -24t-44 -6.5v60q29 0 40.5 20t11.5 50h-41v114z" />
    <glyph glyph-name="quotesinglbase" unicode="&#x201a;" horiz-adv-x="235" 
d="M56 114h114v-88q0 -48 -11.5 -78t-29.5 -47.5t-40 -24t-44 -6.5v60q29 0 40.5 20t11.5 50h-41v114z" />
    <glyph glyph-name="quotedblleft" unicode="&#x201c;" horiz-adv-x="386" 
d="M325 467h-114v88q0 48 11.5 78t29.5 47.5t40 24t44 6.5v-60q-29 0 -40.5 -20t-11.5 -50h41v-114zM144 467h-114v88q0 48 11.5 78t29.5 47.5t40 24t44 6.5v-60q-29 0 -40.5 -20t-11.5 -50h41v-114z" />
    <glyph glyph-name="quotedblright" unicode="&#x201d;" horiz-adv-x="387" 
d="M62 700h114v-88q0 -48 -11.5 -78t-29.5 -47.5t-40 -24t-44 -6.5v60q29 0 40.5 20t11.5 50h-41v114zM243 700h114v-88q0 -48 -11.5 -78t-29.5 -47.5t-40 -24t-44 -6.5v60q29 0 40.5 20t11.5 50h-41v114z" />
    <glyph glyph-name="quotedblbase" unicode="&#x201e;" horiz-adv-x="416" 
d="M56 114h114v-88q0 -48 -11.5 -78t-29.5 -47.5t-40 -24t-44 -6.5v60q29 0 40.5 20t11.5 50h-41v114zM237 114h114v-88q0 -48 -11.5 -78t-29.5 -47.5t-40 -24t-44 -6.5v60q29 0 40.5 20t11.5 50h-41v114z" />
    <glyph glyph-name="dagger" unicode="&#x2020;" horiz-adv-x="573" 
d="M338 -180h-111v577h-167v103h167v200h111v-200h175v-103h-175v-577z" />
    <glyph glyph-name="daggerdbl" unicode="&#x2021;" horiz-adv-x="573" 
d="M513 19h-175v-199h-111v199h-167v102h167v276h-167v103h167v200h111v-200h175v-103h-175v-276h175v-102z" />
    <glyph glyph-name="bullet" unicode="&#x2022;" horiz-adv-x="477" 
d="M80 352q0 33 12.5 61.5t34 50t50.5 34t62 12.5t61.5 -12.5t50 -34t34 -50t12.5 -61.5t-12.5 -62t-34 -50t-50 -33.5t-61.5 -12.5t-62 12.5t-50.5 33.5t-34 50t-12.5 62z" />
    <glyph glyph-name="ellipsis" unicode="&#x2026;" horiz-adv-x="819" 
d="M80 113h113v-113h-113v113zM353 113h113v-113h-113v113zM626 113h113v-113h-113v113z" />
    <glyph glyph-name="perthousand" unicode="&#x2030;" horiz-adv-x="1311" 
d="M395 479q0 -34 -12.5 -61t-34 -46.5t-50 -30t-61.5 -10.5t-61.5 10.5t-49.5 30t-33.5 47t-12.5 60.5v83q0 33 12.5 60.5t33.5 47t49.5 30t61.5 10.5t61.5 -10.5t50 -30t34 -47t12.5 -60.5v-83zM290 575q0 23 -15.5 35t-38.5 12t-37.5 -12t-14.5 -35v-108q0 -24 15 -36
t38 -12t38 12t15 35v109zM579 700h94l-317 -700h-97zM855 137q0 -34 -12.5 -61t-34 -46.5t-50 -30t-61.5 -10.5t-61.5 10.5t-49.5 30t-33.5 47t-12.5 60.5v83q0 33 12.5 60.5t33.5 47t49.5 30t61.5 10.5t61.5 -10.5t50 -30t34 -47t12.5 -60.5v-83zM750 233q0 23 -15.5 35
t-38.5 12t-37.5 -12t-14.5 -35v-108q0 -24 15 -36t38 -12t38 12t15 35v109zM1231 137q0 -34 -12.5 -61t-34 -46.5t-50 -30t-61.5 -10.5t-61.5 10.5t-49.5 30t-33.5 47t-12.5 60.5v83q0 33 12.5 60.5t33.5 47t49.5 30t61.5 10.5t61.5 -10.5t50 -30t34 -47t12.5 -60.5v-83z
M1126 233q0 23 -15.5 35t-38.5 12t-37.5 -12t-14.5 -35v-108q0 -24 15 -36t38 -12t38 12t15 35v109z" />
    <glyph glyph-name="guilsinglleft" unicode="&#x2039;" horiz-adv-x="391" 
d="M191 125l-126 165l126 166h129l-132 -165l133 -166h-130z" />
    <glyph glyph-name="guilsinglright" unicode="&#x203a;" horiz-adv-x="391" 
d="M70 125l133 166l-132 165h129l126 -166l-126 -165h-130z" />
    <glyph glyph-name="Euro" unicode="&#x20ac;" horiz-adv-x="593" 
d="M40 475h61q1 48 19.5 91t52 75t80 50.5t103.5 18.5q32 0 63 -3.5t56 -7.5q29 -5 55 -11l-5 -107q-33 5 -65 9q-27 3 -56.5 6t-51.5 3q-32 0 -57 -10.5t-41.5 -27.5t-25.5 -39.5t-10 -46.5h240v-96h-242v-59h218v-96h-216q1 -24 10 -46t25.5 -39.5t41 -27.5t57.5 -10
q20 0 50.5 2.5t58.5 6.5q33 4 68 10l4 -107q-28 -7 -58 -12q-26 -5 -57.5 -8t-61.5 -3q-58 0 -104.5 18.5t-79.5 50t-51.5 74.5t-19.5 91h-61v96h60v59h-60v96z" />
    <glyph glyph-name="trademark" unicode="&#x2122;" horiz-adv-x="808" 
d="M70 700h258v-86h-85v-274h-89v274h-84v86zM718 340h-87v160l5 69l-52 -95h-68l-49 93l5 -67v-160h-88v360h89l78 -133l78 133h89v-360z" />
    </font>
</defs>
</svg>
