<?xml version="1.0" encoding="utf-8"?>
<!-- Generator: Adobe Illustrator 19.0.1, SVG Export Plug-In . SVG Version: 6.00 Build 0)  -->
<svg version="1.1" id="Группа_1" xmlns="http://www.w3.org/2000/svg" xmlns:xlink="http://www.w3.org/1999/xlink" x="0px"
	 y="0px" viewBox="-235 406.9 124 29" style="enable-background:new -235 406.9 124 29;" xml:space="preserve">
<style type="text/css">
	.st0{fill:#FFFFFF;}
	.st1{fill:url(#corner_1_);}
</style>
<path id="logo" class="st0" d="M-203.7,429.7h5.1l0.1-15.7l-5.2,0L-203.7,429.7L-203.7,429.7z M-201.3,406.9c-1.5,0-2.7,1.2-2.7,2.6
	s1.2,2.7,2.6,2.7s2.7-1.2,2.7-2.6c0,0,0,0,0,0C-198.6,408.1-199.8,406.9-201.3,406.9C-201.2,406.9-201.2,406.9-201.3,406.9
	 M-141.5,429.8h5.1v-15.6h-5.1V429.8z M-121.9,414.1l-2.8,3.7l-2.8-3.7h-6.1l5.8,7.8l-5.7,7.8h5.9l2.8-3.9l2.9-4l5.8-7.8
	C-115.9,414.1-121.9,414.1-121.9,414.1z M-120.3,423.4l-2.7,3.6l6.1,8.9h6L-120.3,423.4z M-138.9,406.9c-1.5,0-2.7,1.2-2.7,2.6
	c0,1.5,1.2,2.7,2.6,2.7s2.7-1.2,2.7-2.6c0,0,0,0,0,0C-136.2,408.1-137.4,406.9-138.9,406.9 M-235,417.7h4.3v12h5.4v-12h4.3v-3.8
	H-235V417.7z M-158.4,417.9h4.3v11.8h5.4v-11.8h4.3v-3.8h-14V417.9z M-208.9,413.5c-2.9,0-4.4,2.8-4.4,2.8l-1.9-2.4h-2.9v15.8h5.4
	v-6.9c-0.1-1.3,0.4-2.6,1.3-3.6c1.7-1.7,4.4-0.9,4.4-0.9l0.4-4.5C-207.4,413.5-208.2,413.5-208.9,413.5z M-190.2,416.5l-1.9-2.4
	h-2.9v15.6h5.4l0-7.7c-0.1-1.7,1-3.2,2.6-3.7c1.3-0.3,3.2,0.2,3.1,3.4l0,8h5.2v-10c0.2-3.2-2.2-5.8-5.4-6c-0.1,0-0.2,0-0.3,0
	C-186.7,413.7-188.9,414.7-190.2,416.5L-190.2,416.5z M-167.6,413.7c-6.2,0-8.5,4.4-8.5,8.3c0,4.5,3.3,8.2,8.8,8.2
	c2.3,0,4.6-0.6,6.6-1.7l-0.5-3c-1.9,0.7-3.9,1-5.9,1c-3.4-0.1-3.5-2.9-3.5-2.9h10.8C-159.7,417.4-162.4,413.7-167.6,413.7z
	 M-170.7,420.5L-170.7,420.5c-0.1-1.7,1.1-3.1,2.8-3.3c0.1,0,0.3,0,0.4,0c1.6,0.1,2.9,1.5,2.8,3.1c0,0,0,0.1,0,0.1c0,0.1,0-0.1,0,0
	H-170.7z"/>
<linearGradient id="corner_1_" gradientUnits="userSpaceOnUse" x1="-110.5789" y1="435.2766" x2="-122.7976" y2="426.721">
	<stop  offset="0" style="stop-color:#00ABFF"/>
	<stop  offset="1" style="stop-color:#80D5FF"/>
</linearGradient>
<path id="corner" class="st1" d="M-120.3,423.4l-2.7,3.6l6.1,8.9h6L-120.3,423.4z"/>
</svg>
